<svg width="19" height="19" viewBox="0 0 19 19" fill="none" xmlns="http://www.w3.org/2000/svg">
<path d="M17.3148 8.25801C17.2971 8.08085 17.2794 7.92141 17.2262 7.74441L17.1199 7.33709L17.0668 7.1245L16.9959 6.94734L16.8719 6.57546L16.8365 6.48689L16.8188 6.43374V6.41602L16.8011 6.39831V6.38059L16.7125 6.20344C16.5885 5.95542 16.4822 5.70756 16.3406 5.47725C16.1989 5.24695 16.0572 4.99905 15.8801 4.7865C15.2248 3.90088 14.3746 3.17466 13.4358 2.64334C12.4793 2.11202 11.4167 1.7754 10.3362 1.68684L9.92885 1.66913C9.78712 1.66913 9.66311 1.65141 9.52153 1.66913L9.1142 1.68684L8.90162 1.70456C8.83076 1.70456 8.7599 1.72227 8.70675 1.73999L8.28157 1.77542C8.21071 1.79314 8.13985 1.79314 8.0867 1.81085L7.89183 1.864C7.62609 1.93486 7.34279 1.988 7.11248 2.0943C6.19142 2.36003 5.28819 2.82049 4.52656 3.4404C3.74722 4.06031 3.10959 4.83965 2.61371 5.72527C2.13552 6.61089 1.81665 7.58497 1.71037 8.5769L1.65723 9.33852C1.65723 9.58654 1.67494 9.8344 1.69266 10.1001C1.72809 10.3482 1.76352 10.596 1.79895 10.8441C1.85209 11.0921 1.92295 11.3577 1.9761 11.6057L1.99382 11.6943L2.02925 11.7828L2.0824 11.9423L2.2064 12.2789L2.24183 12.3674L2.27726 12.4383V12.456L2.25955 12.4557L2.34812 12.6329L2.50757 12.9695L2.59614 13.1467C2.63157 13.1998 2.667 13.2529 2.68472 13.3061L2.87959 13.625C3.0036 13.8553 3.16304 14.0323 3.32235 14.2449C3.94226 15.0419 4.7216 15.715 5.5895 16.2286C6.45741 16.7422 7.43151 17.0788 8.42341 17.2205C8.54742 17.2383 8.67143 17.2737 8.79529 17.2737L9.16718 17.2914C9.29118 17.2914 9.41519 17.3091 9.53906 17.3091L9.91094 17.2914C10.035 17.2914 10.159 17.2914 10.2828 17.2737L11.0266 17.1674L11.4162 17.0788C11.8058 17.008 12.2487 16.7245 12.3727 16.6183C12.4967 16.4943 12.4613 16.4589 12.3018 16.4589C12.231 16.4589 12.1247 16.4589 12.0007 16.4943C11.9298 16.512 11.8767 16.512 11.8058 16.5298C11.7349 16.5475 11.6641 16.5652 11.5755 16.5652C10.8139 16.6892 9.98137 16.7069 9.1489 16.6006C9.06033 16.5652 8.98946 16.512 8.90089 16.4589C8.81231 16.388 8.72373 16.3349 8.63516 16.264C8.458 16.1223 8.29856 15.9806 8.15696 15.8036C7.8558 15.4847 7.57249 15.0951 7.30674 14.7055C6.89942 14.0679 6.59827 13.3771 6.36796 12.6509C7.2359 12.6863 8.12152 12.7218 8.98928 12.7395C8.97157 13.7669 8.98928 14.8118 9.07786 15.8391C9.11329 16.2642 9.2373 16.6362 9.46746 16.6008C9.53832 16.5831 9.6269 16.5476 9.68005 16.459C9.73319 16.4768 9.78634 16.4945 9.83949 16.5122C9.94578 16.5299 10.0521 16.5299 10.1584 16.5299C10.2647 16.5122 10.3887 16.5122 10.495 16.4768C10.7253 16.4236 10.9554 16.3173 11.1857 16.1933C11.6285 15.9276 12.0182 15.5557 12.3369 15.1305C12.7088 14.6169 13.0277 14.0678 13.2934 13.4833C13.3997 13.253 13.4883 13.0051 13.5946 12.7748C14.2499 12.7748 14.9053 12.7394 15.5429 12.6863H15.5606C15.5606 12.704 15.5429 12.7217 15.5429 12.7217L15.3303 13.1114C15.2949 13.1823 15.2594 13.2354 15.224 13.2886C15.0468 13.5189 14.9051 13.7668 14.7104 13.9793C14.6218 14.0856 14.5333 14.1919 14.427 14.2982L14.1081 14.5994C13.1693 15.5204 12.1244 15.9809 12.3192 16.1935C12.4078 16.2821 12.6911 16.2466 13.134 16.1226C13.3466 16.0341 13.5945 15.9278 13.8602 15.786C13.9842 15.6975 14.1259 15.6089 14.2675 15.5203C14.3384 15.4672 14.4092 15.4317 14.4801 15.3609C14.551 15.3077 14.6218 15.2369 14.6927 15.1837C14.8167 15.0774 14.9407 14.9711 15.0646 14.8471L15.4012 14.4752C15.5252 14.3512 15.6138 14.2095 15.72 14.0856C15.8263 13.9439 15.9326 13.8199 16.0212 13.6783C16.1984 13.3949 16.3931 13.1116 16.5348 12.7927L16.6411 12.5624C16.6765 12.4915 16.712 12.403 16.7474 12.3321L16.9245 11.8539C17.1371 11.1986 17.2788 10.5255 17.3141 9.85245C17.3496 9.51586 17.3141 9.1617 17.3141 8.82508C17.3678 8.59464 17.3324 8.4352 17.3147 8.25805L17.3148 8.25801ZM15.6321 6.22112H15.579C14.9945 6.18569 14.41 6.15026 13.8254 6.13255C13.6305 5.42408 13.3472 4.75101 12.9752 4.11338C12.7449 3.7415 12.497 3.36948 12.1781 3.05061C12.2313 3.06832 12.3021 3.10375 12.3553 3.12147C13.7724 3.74152 14.9237 4.87502 15.6321 6.22112ZM13.4358 9.17906C13.3827 9.88753 13.2587 10.5606 13.0815 11.2336C13.0284 11.4108 12.9752 11.6055 12.9221 11.7827C11.9478 11.8004 10.9561 11.8358 9.98184 11.8712C9.96413 11.0919 9.9287 10.3303 9.91098 9.55093C10.0173 8.73615 10.0704 7.90368 10.0881 7.07118C10.3007 7.07118 10.4955 7.05347 10.708 7.05347C10.9383 7.07118 11.1508 7.07118 11.3811 7.0889C11.9656 7.10661 12.5501 7.12433 13.1347 7.12433C13.2941 7.7975 13.4004 8.48829 13.4358 9.17904L13.4358 9.17906ZM6.45729 6.04397C6.63445 5.56577 6.84689 5.08747 7.09492 4.66243C7.32522 4.27283 7.57312 3.91853 7.85655 3.59966C7.99827 3.44022 8.15771 3.2985 8.31702 3.17462C8.47646 3.05062 8.65362 2.92661 8.83062 2.83803C9.02549 2.73174 9.22022 2.66087 9.36194 2.5723C9.39737 2.55458 9.4328 2.53687 9.45051 2.51915H9.62767C9.36194 3.15678 9.23807 3.93612 9.20263 4.73319C9.18491 5.21138 9.1672 5.68968 9.14949 6.16788C8.24615 6.06172 7.34291 6.04401 6.45729 6.04401L6.45729 6.04397ZM10.1062 6.22113C10.1062 5.01674 10.0884 3.81222 10.1062 2.60777C10.1947 2.6432 10.2833 2.69634 10.3719 2.74949C10.7615 2.94436 11.0981 3.24537 11.3993 3.59971C11.7004 3.95405 11.9483 4.34361 12.1786 4.75093C12.4266 5.19369 12.6391 5.67199 12.7985 6.15019C11.9128 6.15019 11.0095 6.18562 10.1062 6.22105L10.1062 6.22113ZM5.1646 4.1134L5.60736 3.79453C5.64279 3.75909 5.67822 3.74138 5.71365 3.70595L5.83765 3.63509L6.29827 3.35164L6.79429 3.10362L6.9183 3.05048H6.93601L6.97144 3.03276L7.0423 3.01505L7.18403 2.9619L7.11316 3.03276C6.72356 3.42236 6.42241 3.86526 6.15667 4.3257C5.85551 4.87474 5.62535 5.45921 5.4482 6.06154H3.55307C3.80108 5.6365 4.08438 5.24676 4.38557 4.8926L4.56272 4.69773L4.6513 4.59144L4.75759 4.50286L5.1646 4.1134ZM2.89744 11.3932C2.87973 11.3401 2.87973 11.3046 2.86201 11.2692L2.75572 10.7377C2.738 10.6492 2.738 10.5606 2.72029 10.472L2.66714 10.1888C2.64943 10.1003 2.64943 10.0117 2.64943 9.92311L2.63171 9.37407C2.63171 9.19692 2.64943 9.00219 2.66714 8.82504C2.738 8.09885 2.93287 7.39035 3.21618 6.71731C3.23389 6.66417 3.26932 6.61102 3.28704 6.54016C3.85379 6.78817 4.54458 6.91204 5.23533 6.94748C5.09361 7.67367 5.02274 8.41757 5.00503 9.1792C4.91659 9.90539 4.95202 10.6847 5.09374 11.4286C5.11145 11.5172 5.12917 11.6058 5.14689 11.6944C4.54469 11.6944 3.9425 11.6944 3.34031 11.6767C3.25173 11.6767 3.11001 11.7652 3.05686 11.8184L2.95057 11.5172L2.89744 11.3932ZM5.74907 13.6426C6.05023 14.3511 6.43982 15.0242 6.95345 15.6441C7.11289 15.8212 7.27233 16.016 7.46705 16.1754L7.39619 16.14C7.25447 16.0868 7.11274 16.0337 6.97115 15.9628L6.86486 15.9274L6.75857 15.8742L6.5637 15.768L6.35125 15.6795C6.31582 15.6618 6.28039 15.6441 6.24496 15.6264L6.15638 15.5555C6.03237 15.4669 5.89065 15.3961 5.76678 15.3075C5.69592 15.2721 5.64277 15.2189 5.57191 15.1835L5.39475 15.0418C5.27075 14.9532 5.14673 14.8646 5.04045 14.7583C4.47369 14.2801 4.01308 13.6955 3.62347 13.0579C3.5349 12.8985 3.4286 12.739 3.35774 12.5797L3.23387 12.3143L3.18073 12.1903L3.14543 12.1371V12.1194C3.18086 12.1371 3.21629 12.1548 3.25173 12.1725C3.85392 12.456 4.5801 12.5621 5.32401 12.5976H5.35944C5.4656 12.9519 5.58963 13.2883 5.74907 13.6426ZM6.15639 11.6944C6.13868 11.6235 6.12096 11.5526 6.10324 11.4641C5.97924 10.8973 5.90837 10.3128 5.87294 9.74593C5.87294 9.60421 5.85523 9.46249 5.85523 9.32089V8.878C5.85523 8.59455 5.89066 8.29352 5.90837 8.01006C5.96152 7.72661 6.01466 7.4433 6.08553 7.15984C6.10324 7.10669 6.12096 7.03583 6.13868 6.98268C7.11289 7.03583 8.10468 7.07126 9.0789 7.08897C9.04347 8.2402 9.00804 9.39157 9.06118 10.5428C9.04347 10.7908 9.04347 11.021 9.02575 11.269C9.02575 11.4461 9.00804 11.6233 9.00804 11.8003C8.08712 11.6943 7.1129 11.6943 6.15641 11.6943L6.15639 11.6944ZM11.3813 14.971C11.1687 15.219 10.9386 15.4669 10.6906 15.6441C10.4425 15.8212 10.177 15.9453 9.91122 15.9984C9.92893 15.9275 9.92893 15.8744 9.92893 15.8035C9.98208 15.0065 10.0175 14.2094 10.0175 13.4123C10.0175 13.182 10.0175 12.9519 9.99979 12.7393C10.2301 12.7393 10.4603 12.7216 10.6905 12.7216C10.9208 12.7393 11.1333 12.7393 11.3636 12.757C11.7709 12.7747 12.1784 12.7747 12.5857 12.7924C12.5326 12.9519 12.4617 13.0936 12.4086 13.2352C12.143 13.8375 11.7886 14.4574 11.3813 14.971ZM16.4115 9.63958L16.3938 10.0646C16.3229 10.6314 16.2343 11.1981 16.0219 11.7296L15.951 11.9245C15.8447 11.889 15.7207 11.8536 15.5791 11.8536C15.0478 11.8182 14.4988 11.7827 13.9496 11.765C13.9673 11.7296 13.9673 11.6942 13.985 11.6587C14.1444 11.0388 14.2507 10.4189 14.2862 9.76359C14.2862 9.60415 14.3039 9.44471 14.2862 9.26771V9.03741L14.2684 8.78939C14.2507 8.47052 14.2153 8.15177 14.1622 7.8329C14.1444 7.56717 14.0913 7.3193 14.0559 7.05356C14.5695 7.03584 15.1009 7.01812 15.6145 6.98269C15.7563 6.96498 15.8803 6.94726 15.9864 6.91183C16.1636 7.35459 16.2876 7.83289 16.3583 8.31109L16.4115 8.73613L16.4292 9.16117L16.4469 9.37375C16.4292 9.49804 16.4115 9.56876 16.4115 9.63962L16.4115 9.63958Z" fill="black"/>
</svg>
