<svg width="129" height="133" viewBox="0 0 129 133" fill="none" xmlns="http://www.w3.org/2000/svg">
<g clip-path="url(#clip0_525_2920)">
<path fill-rule="evenodd" clip-rule="evenodd" d="M127.364 47.6302C119.849 50.4002 112.411 54.2078 108.165 55.3763C106.766 55.7614 104.967 56.0092 106.534 54.7821C110.874 51.3841 116.783 48.4043 122.697 47.0829C119.284 45.6234 115.848 42.4185 113.411 39.1832C113.111 38.7848 111.779 37.3001 111.614 36.3513C111.552 35.9989 111.652 35.7196 112.025 35.5982C112.237 35.5289 112.496 35.5843 112.793 35.7502C113.657 36.2345 115.778 38.3305 117.872 40.356C120.979 43.3614 123.55 45.4903 127.364 47.6302Z" fill="#F33FA2"/>
<path fill-rule="evenodd" clip-rule="evenodd" d="M66.1962 70.0022C62.8636 66.9965 59.2452 64.48 55.3306 62.3244C62.9173 56.2531 72.3582 52.4195 81.7183 50.0945C93.0278 47.285 105.135 46.5474 116.306 47.5065C119.781 47.8049 121.317 47.6989 124.812 47.3291C106.459 40.9027 67.9467 45.0127 52.808 61.3315C29.7023 50.7695 2.34321 64.3135 7.87122 91.5575C6.56967 68.6407 25.0582 53.0154 51.2557 63.1537C49.8174 65.002 48.6672 66.9915 47.859 69.1248C45.9465 74.172 44.6608 79.3813 47.0026 85.4947C50.2511 93.9753 60.4884 99.7085 68.675 94.0399C78.5216 87.221 73.2998 76.4079 66.1962 70.0022ZM53.9774 64.289C58.0858 66.5513 62.07 69.4134 65.4828 72.6208C70.9828 77.7895 74.2266 84.775 69.4842 90.2082C66.5492 93.571 62.644 94.3841 58.8327 93.2234C45.1043 89.042 46.8681 71.4989 53.9774 64.289Z" fill="#F33FA2"/>
</g>
<defs>
<clipPath id="clip0_525_2920">
<rect width="101.876" height="87.8931" fill="white" transform="translate(128.744 45.3335) rotate(121)"/>
</clipPath>
</defs>
</svg>
