<svg width="18" height="18" viewBox="0 0 18 18" fill="none" xmlns="http://www.w3.org/2000/svg">
<path d="M16.875 1.68355L12.3711 1.68356V0.5625C12.3711 0.251719 12.1193 0 11.8086 0C11.4978 0 11.2461 0.251719 11.2461 0.5625V1.68328H6.74606V0.5625C6.74606 0.251719 6.49434 0 6.18356 0C5.87278 0 5.62106 0.251719 5.62106 0.5625V1.68328H1.125C0.503719 1.68328 0 2.187 0 2.80828V16.8708C0 17.492 0.503719 17.9958 1.125 17.9958H16.875C17.4963 17.9958 18 17.492 18 16.8708V2.80828C18 2.18726 17.4963 1.68355 16.875 1.68355ZM16.875 16.8708H1.125V2.80828H5.62106V3.375C5.62106 3.68576 5.87278 3.9375 6.18356 3.9375C6.49434 3.9375 6.74606 3.68576 6.74606 3.375V2.80856H11.2461V3.37528C11.2461 3.68606 11.4978 3.93778 11.8086 3.93778C12.1193 3.93778 12.3711 3.68606 12.3711 3.37528V2.80856H16.875V16.8708ZM12.9375 8.99605H14.0625C14.373 8.99605 14.625 8.74405 14.625 8.43355V7.30855C14.625 6.99805 14.373 6.74605 14.0625 6.74605H12.9375C12.627 6.74605 12.375 6.99805 12.375 7.30855V8.43355C12.375 8.74405 12.627 8.99605 12.9375 8.99605ZM12.9375 13.4958H14.0625C14.373 13.4958 14.625 13.244 14.625 12.9333V11.8083C14.625 11.4978 14.373 11.2458 14.0625 11.2458H12.9375C12.627 11.2458 12.375 11.4978 12.375 11.8083V12.9333C12.375 13.2443 12.627 13.4958 12.9375 13.4958ZM9.5625 11.2458H8.4375C8.127 11.2458 7.875 11.4978 7.875 11.8083V12.9333C7.875 13.244 8.127 13.4958 8.4375 13.4958H9.5625C9.873 13.4958 10.125 13.244 10.125 12.9333V11.8083C10.125 11.498 9.873 11.2458 9.5625 11.2458ZM9.5625 6.74605H8.4375C8.127 6.74605 7.875 6.99805 7.875 7.30855V8.43355C7.875 8.74405 8.127 8.99605 8.4375 8.99605H9.5625C9.873 8.99605 10.125 8.74405 10.125 8.43355V7.30855C10.125 6.99776 9.873 6.74605 9.5625 6.74605ZM5.0625 6.74605H3.9375C3.627 6.74605 3.375 6.99805 3.375 7.30855V8.43355C3.375 8.74405 3.627 8.99605 3.9375 8.99605H5.0625C5.373 8.99605 5.625 8.74405 5.625 8.43355V7.30855C5.625 6.99776 5.373 6.74605 5.0625 6.74605ZM5.0625 11.2458H3.9375C3.627 11.2458 3.375 11.4978 3.375 11.8083V12.9333C3.375 13.244 3.627 13.4958 3.9375 13.4958H5.0625C5.373 13.4958 5.625 13.244 5.625 12.9333V11.8083C5.625 11.498 5.373 11.2458 5.0625 11.2458Z" fill="#F33FA2"/>
</svg>
