<svg width="18" height="18" viewBox="0 0 18 18" fill="none" xmlns="http://www.w3.org/2000/svg">
<g clip-path="url(#clip0_1190_872)">
<path d="M16.875 1.68599L12.3711 1.686V0.564941C12.3711 0.25416 12.1193 0.00244141 11.8086 0.00244141C11.4978 0.00244141 11.2461 0.25416 11.2461 0.564941V1.68572H6.74606V0.564941C6.74606 0.25416 6.49434 0.00244141 6.18356 0.00244141C5.87278 0.00244141 5.62106 0.25416 5.62106 0.564941V1.68572H1.125C0.503719 1.68572 0 2.18944 0 2.81072V16.8732C0 17.4945 0.503719 17.9982 1.125 17.9982H16.875C17.4963 17.9982 18 17.4945 18 16.8732V2.81072C18 2.18971 17.4963 1.68599 16.875 1.68599ZM16.875 16.8732H1.125V2.81072H5.62106V3.37744C5.62106 3.68821 5.87278 3.93994 6.18356 3.93994C6.49434 3.93994 6.74606 3.68821 6.74606 3.37744V2.811H11.2461V3.37772C11.2461 3.6885 11.4978 3.94022 11.8086 3.94022C12.1193 3.94022 12.3711 3.6885 12.3711 3.37772V2.811H16.875V16.8732ZM12.9375 8.99849H14.0625C14.373 8.99849 14.625 8.74649 14.625 8.43599V7.31099C14.625 7.00049 14.373 6.74849 14.0625 6.74849H12.9375C12.627 6.74849 12.375 7.00049 12.375 7.31099V8.43599C12.375 8.74649 12.627 8.99849 12.9375 8.99849ZM12.9375 13.4982H14.0625C14.373 13.4982 14.625 13.2465 14.625 12.9357V11.8107C14.625 11.5002 14.373 11.2482 14.0625 11.2482H12.9375C12.627 11.2482 12.375 11.5002 12.375 11.8107V12.9357C12.375 13.2468 12.627 13.4982 12.9375 13.4982ZM9.5625 11.2482H8.4375C8.127 11.2482 7.875 11.5002 7.875 11.8107V12.9357C7.875 13.2465 8.127 13.4982 8.4375 13.4982H9.5625C9.873 13.4982 10.125 13.2465 10.125 12.9357V11.8107C10.125 11.5005 9.873 11.2482 9.5625 11.2482ZM9.5625 6.74849H8.4375C8.127 6.74849 7.875 7.00049 7.875 7.31099V8.43599C7.875 8.74649 8.127 8.99849 8.4375 8.99849H9.5625C9.873 8.99849 10.125 8.74649 10.125 8.43599V7.31099C10.125 7.00021 9.873 6.74849 9.5625 6.74849ZM5.0625 6.74849H3.9375C3.627 6.74849 3.375 7.00049 3.375 7.31099V8.43599C3.375 8.74649 3.627 8.99849 3.9375 8.99849H5.0625C5.373 8.99849 5.625 8.74649 5.625 8.43599V7.31099C5.625 7.00021 5.373 6.74849 5.0625 6.74849ZM5.0625 11.2482H3.9375C3.627 11.2482 3.375 11.5002 3.375 11.8107V12.9357C3.375 13.2465 3.627 13.4982 3.9375 13.4982H5.0625C5.373 13.4982 5.625 13.2465 5.625 12.9357V11.8107C5.625 11.5005 5.373 11.2482 5.0625 11.2482Z" fill="#666666"/>
</g>
<defs>
<clipPath id="clip0_1190_872">
<rect width="18" height="18" fill="white"/>
</clipPath>
</defs>
</svg>
