<svg width="47" height="68" viewBox="0 0 47 68" fill="none" xmlns="http://www.w3.org/2000/svg">
<path d="M9.02832 51.1464L6.27832 42.1854H6.20801C6.21842 42.399 6.23405 42.7219 6.25488 43.1542C6.28092 43.5813 6.30436 44.037 6.3252 44.5214C6.34603 45.0057 6.35645 45.4432 6.35645 45.8339V51.1464H4.19238V39.7245H7.48926L10.1924 48.4589H10.2393L13.1064 39.7245H16.4033V51.1464H14.1455V45.7401C14.1455 45.3807 14.1507 44.9667 14.1611 44.4979C14.1768 44.0292 14.195 43.5839 14.2158 43.162C14.2367 42.7349 14.2523 42.4146 14.2627 42.201H14.1924L11.2471 51.1464H9.02832ZM27.0361 46.7635C27.0361 47.4927 26.9372 48.1385 26.7393 48.701C26.5465 49.2635 26.2627 49.7401 25.8877 50.1307C25.5179 50.5162 25.07 50.8078 24.5439 51.0057C24.0231 51.2037 23.4346 51.3026 22.7783 51.3026C22.1637 51.3026 21.5986 51.2037 21.083 51.0057C20.5726 50.8078 20.1273 50.5162 19.7471 50.1307C19.3721 49.7401 19.0804 49.2635 18.8721 48.701C18.6689 48.1385 18.5674 47.4927 18.5674 46.7635C18.5674 45.7948 18.7393 44.9745 19.083 44.3026C19.4268 43.6307 19.9163 43.1203 20.5518 42.7714C21.1872 42.4224 21.945 42.2479 22.8252 42.2479C23.6429 42.2479 24.3669 42.4224 24.9971 42.7714C25.6325 43.1203 26.1299 43.6307 26.4893 44.3026C26.8538 44.9745 27.0361 45.7948 27.0361 46.7635ZM20.9971 46.7635C20.9971 47.3365 21.0596 47.8182 21.1846 48.2089C21.3096 48.5995 21.5049 48.8938 21.7705 49.0917C22.0361 49.2896 22.3825 49.3885 22.8096 49.3885C23.2314 49.3885 23.5726 49.2896 23.833 49.0917C24.0986 48.8938 24.2913 48.5995 24.4111 48.2089C24.5361 47.8182 24.5986 47.3365 24.5986 46.7635C24.5986 46.1854 24.5361 45.7063 24.4111 45.326C24.2913 44.9406 24.0986 44.6516 23.833 44.4589C23.5674 44.2662 23.221 44.1698 22.7939 44.1698C22.1637 44.1698 21.7054 44.3859 21.4189 44.8182C21.1377 45.2505 20.9971 45.899 20.9971 46.7635ZM33.8799 42.2479C33.9997 42.2479 34.1377 42.2557 34.2939 42.2714C34.4554 42.2818 34.5856 42.2974 34.6846 42.3182L34.5049 44.5526C34.4268 44.5266 34.3148 44.5083 34.1689 44.4979C34.0283 44.4823 33.9059 44.4745 33.8018 44.4745C33.4945 44.4745 33.195 44.5135 32.9033 44.5917C32.6169 44.6698 32.359 44.7974 32.1299 44.9745C31.9007 45.1464 31.7184 45.3755 31.583 45.662C31.4528 45.9432 31.3877 46.2896 31.3877 46.701V51.1464H29.0049V42.412H30.8096L31.1611 43.8807H31.2783C31.4502 43.5839 31.6637 43.313 31.9189 43.0682C32.1794 42.8182 32.4736 42.6203 32.8018 42.4745C33.1351 42.3234 33.4945 42.2479 33.8799 42.2479ZM39.8721 42.2479C40.6794 42.2479 41.3747 42.4042 41.958 42.7167C42.5413 43.024 42.9919 43.4719 43.3096 44.0604C43.6273 44.649 43.7861 45.3677 43.7861 46.2167V47.3729H38.1533C38.1794 48.0448 38.3799 48.5734 38.7549 48.9589C39.1351 49.3391 39.6611 49.5292 40.333 49.5292C40.8903 49.5292 41.4007 49.4719 41.8643 49.3573C42.3278 49.2427 42.8044 49.0708 43.2939 48.8417V50.6854C42.8617 50.899 42.4085 51.0552 41.9346 51.1542C41.4658 51.2531 40.8955 51.3026 40.2236 51.3026C39.3486 51.3026 38.5726 51.1412 37.8955 50.8182C37.2236 50.4953 36.695 50.0031 36.3096 49.3417C35.9294 48.6802 35.7393 47.8469 35.7393 46.8417C35.7393 45.8208 35.9111 44.9719 36.2549 44.2948C36.6038 43.6125 37.0882 43.1021 37.708 42.7635C38.3278 42.4198 39.0492 42.2479 39.8721 42.2479ZM39.8877 43.9432C39.4242 43.9432 39.0387 44.0917 38.7314 44.3885C38.4294 44.6854 38.2549 45.1516 38.208 45.787H41.5518C41.5465 45.4328 41.4814 45.1177 41.3564 44.8417C41.2367 44.5656 41.0544 44.3469 40.8096 44.1854C40.57 44.024 40.2627 43.9432 39.8877 43.9432ZM11.5908 60.326C11.5908 61.6125 11.3434 62.688 10.8486 63.5526C10.359 64.412 9.64811 65.0604 8.71582 65.4979C7.78353 65.9302 6.66113 66.1464 5.34863 66.1464H2.11426V54.7245H5.7002C6.89811 54.7245 7.93717 54.938 8.81738 55.3651C9.69759 55.787 10.3799 56.4146 10.8643 57.2479C11.3486 58.076 11.5908 59.1021 11.5908 60.326ZM9.0752 60.3885C9.0752 59.5448 8.9502 58.8521 8.7002 58.3104C8.4554 57.7635 8.09082 57.3599 7.60645 57.0995C7.12728 56.8391 6.53353 56.7089 5.8252 56.7089H4.53613V64.1464H5.5752C6.75749 64.1464 7.63509 63.8313 8.20801 63.201C8.78613 62.5708 9.0752 61.6333 9.0752 60.3885ZM17.3486 57.2323C18.5205 57.2323 19.4189 57.4875 20.0439 57.9979C20.6689 58.5083 20.9814 59.2844 20.9814 60.326V66.1464H19.3174L18.8564 64.9589H18.7939C18.5439 65.2714 18.2887 65.5266 18.0283 65.7245C17.7679 65.9224 17.4684 66.0682 17.1299 66.162C16.7913 66.2557 16.3799 66.3026 15.8955 66.3026C15.3799 66.3026 14.9163 66.2037 14.5049 66.0057C14.0986 65.8078 13.7783 65.5057 13.5439 65.0995C13.3096 64.688 13.1924 64.1672 13.1924 63.537C13.1924 62.6099 13.5179 61.9276 14.1689 61.4901C14.82 61.0474 15.7965 60.8026 17.0986 60.7557L18.6143 60.7089V60.326C18.6143 59.8677 18.4945 59.5318 18.2549 59.3182C18.0153 59.1047 17.682 58.9979 17.2549 58.9979C16.833 58.9979 16.4189 59.0578 16.0127 59.1776C15.6064 59.2974 15.2002 59.4484 14.7939 59.6307L14.0049 58.0214C14.4684 57.7766 14.9867 57.5839 15.5596 57.4432C16.1377 57.3026 16.734 57.2323 17.3486 57.2323ZM18.6143 62.0995L17.6924 62.1307C16.9215 62.1516 16.3851 62.2896 16.083 62.5448C15.7861 62.8 15.6377 63.1359 15.6377 63.5526C15.6377 63.9172 15.7445 64.1776 15.958 64.3339C16.1715 64.4849 16.4502 64.5604 16.7939 64.5604C17.3044 64.5604 17.734 64.4094 18.083 64.1073C18.4372 63.8052 18.6143 63.3755 18.6143 62.8182V62.0995ZM27.1221 64.4042C27.3825 64.4042 27.6351 64.3781 27.8799 64.326C28.1299 64.274 28.3773 64.2089 28.6221 64.1307V65.9042C28.3669 66.0188 28.0492 66.1125 27.6689 66.1854C27.2939 66.2635 26.8825 66.3026 26.4346 66.3026C25.9137 66.3026 25.445 66.2193 25.0283 66.0526C24.6169 65.8807 24.2913 65.5865 24.0518 65.1698C23.8174 64.7479 23.7002 64.162 23.7002 63.412V59.201H22.5596V58.1932L23.8721 57.3964L24.5596 55.5526H26.083V57.412H28.5283V59.201H26.083V63.412C26.083 63.7453 26.1768 63.9953 26.3643 64.162C26.557 64.3234 26.8096 64.4042 27.1221 64.4042ZM33.9971 57.2479C34.8044 57.2479 35.4997 57.4042 36.083 57.7167C36.6663 58.024 37.1169 58.4719 37.4346 59.0604C37.7523 59.649 37.9111 60.3677 37.9111 61.2167V62.3729H32.2783C32.3044 63.0448 32.5049 63.5734 32.8799 63.9589C33.2601 64.3391 33.7861 64.5292 34.458 64.5292C35.0153 64.5292 35.5257 64.4719 35.9893 64.3573C36.4528 64.2427 36.9294 64.0708 37.4189 63.8417V65.6854C36.9867 65.899 36.5335 66.0552 36.0596 66.1542C35.5908 66.2531 35.0205 66.3026 34.3486 66.3026C33.4736 66.3026 32.6976 66.1412 32.0205 65.8182C31.3486 65.4953 30.82 65.0031 30.4346 64.3417C30.0544 63.6802 29.8643 62.8469 29.8643 61.8417C29.8643 60.8208 30.0361 59.9719 30.3799 59.2948C30.7288 58.6125 31.2132 58.1021 31.833 57.7635C32.4528 57.4198 33.1742 57.2479 33.9971 57.2479ZM34.0127 58.9432C33.5492 58.9432 33.1637 59.0917 32.8564 59.3885C32.5544 59.6854 32.3799 60.1516 32.333 60.787H35.6768C35.6715 60.4328 35.6064 60.1177 35.4814 59.8417C35.3617 59.5656 35.1794 59.3469 34.9346 59.1854C34.695 59.024 34.3877 58.9432 34.0127 58.9432ZM45.9424 63.5526C45.9424 64.1464 45.8018 64.649 45.5205 65.0604C45.2445 65.4667 44.8304 65.7766 44.2783 65.9901C43.7262 66.1984 43.0387 66.3026 42.2158 66.3026C41.6064 66.3026 41.083 66.2635 40.6455 66.1854C40.2132 66.1073 39.7757 65.9771 39.333 65.7948V63.826C39.807 64.0396 40.3148 64.2167 40.8564 64.3573C41.4033 64.4927 41.8825 64.5604 42.2939 64.5604C42.7575 64.5604 43.0882 64.4927 43.2861 64.3573C43.4893 64.2167 43.5908 64.0344 43.5908 63.8104C43.5908 63.6646 43.5492 63.5344 43.4658 63.4198C43.3877 63.3 43.2158 63.1672 42.9502 63.0214C42.6846 62.8703 42.2679 62.675 41.7002 62.4354C41.1533 62.2063 40.7028 61.9745 40.3486 61.7401C39.9997 61.5057 39.7393 61.2297 39.5674 60.912C39.4007 60.5891 39.3174 60.1802 39.3174 59.6854C39.3174 58.8781 39.6299 58.2714 40.2549 57.8651C40.8851 57.4537 41.7262 57.2479 42.7783 57.2479C43.32 57.2479 43.8356 57.3026 44.3252 57.412C44.82 57.5214 45.3278 57.6958 45.8486 57.9354L45.1299 59.6542C44.6976 59.4667 44.2887 59.313 43.9033 59.1932C43.5231 59.0734 43.1351 59.0135 42.7393 59.0135C42.3903 59.0135 42.1273 59.0604 41.9502 59.1542C41.7731 59.2479 41.6846 59.3912 41.6846 59.5839C41.6846 59.7245 41.7288 59.8495 41.8174 59.9589C41.9111 60.0682 42.0882 60.1906 42.3486 60.326C42.6143 60.4563 43.0023 60.6255 43.5127 60.8339C44.0075 61.037 44.4372 61.2505 44.8018 61.4745C45.1663 61.6932 45.4476 61.9667 45.6455 62.2948C45.8434 62.6177 45.9424 63.037 45.9424 63.5526Z" fill="#666666"/>
<g clip-path="url(#clip0_1102_485)">
<path d="M36.7393 3.71657L29.2327 3.7166V1.84816C29.2327 1.33019 28.8132 0.91066 28.2952 0.91066C27.7772 0.91066 27.3577 1.33019 27.3577 1.84816V3.71613H19.8577V1.84816C19.8577 1.33019 19.4382 0.91066 18.9202 0.91066C18.4022 0.91066 17.9827 1.33019 17.9827 1.84816V3.71613H10.4893C9.45379 3.71613 8.61426 4.55566 8.61426 5.59113V29.0286C8.61426 30.0641 9.45379 30.9036 10.4893 30.9036H36.7393C37.7747 30.9036 38.6143 30.0641 38.6143 29.0286V5.59113C38.6143 4.5561 37.7747 3.71657 36.7393 3.71657ZM36.7393 29.0286H10.4893V5.59113H17.9827V6.53566C17.9827 7.0536 18.4022 7.47316 18.9202 7.47316C19.4382 7.47316 19.8577 7.0536 19.8577 6.53566V5.5916H27.3577V6.53613C27.3577 7.0541 27.7772 7.47363 28.2952 7.47363C28.8132 7.47363 29.2327 7.0541 29.2327 6.53613V5.5916H36.7393V29.0286ZM30.1768 15.9041H32.0518C32.5693 15.9041 32.9893 15.4841 32.9893 14.9666V13.0916C32.9893 12.5741 32.5693 12.1541 32.0518 12.1541H30.1768C29.6593 12.1541 29.2393 12.5741 29.2393 13.0916V14.9666C29.2393 15.4841 29.6593 15.9041 30.1768 15.9041ZM30.1768 23.4036H32.0518C32.5693 23.4036 32.9893 22.9841 32.9893 22.4661V20.5911C32.9893 20.0736 32.5693 19.6536 32.0518 19.6536H30.1768C29.6593 19.6536 29.2393 20.0736 29.2393 20.5911V22.4661C29.2393 22.9845 29.6593 23.4036 30.1768 23.4036ZM24.5518 19.6536H22.6768C22.1593 19.6536 21.7393 20.0736 21.7393 20.5911V22.4661C21.7393 22.9841 22.1593 23.4036 22.6768 23.4036H24.5518C25.0693 23.4036 25.4893 22.9841 25.4893 22.4661V20.5911C25.4893 20.0741 25.0693 19.6536 24.5518 19.6536ZM24.5518 12.1541H22.6768C22.1593 12.1541 21.7393 12.5741 21.7393 13.0916V14.9666C21.7393 15.4841 22.1593 15.9041 22.6768 15.9041H24.5518C25.0693 15.9041 25.4893 15.4841 25.4893 14.9666V13.0916C25.4893 12.5736 25.0693 12.1541 24.5518 12.1541ZM17.0518 12.1541H15.1768C14.6593 12.1541 14.2393 12.5741 14.2393 13.0916V14.9666C14.2393 15.4841 14.6593 15.9041 15.1768 15.9041H17.0518C17.5693 15.9041 17.9893 15.4841 17.9893 14.9666V13.0916C17.9893 12.5736 17.5693 12.1541 17.0518 12.1541ZM17.0518 19.6536H15.1768C14.6593 19.6536 14.2393 20.0736 14.2393 20.5911V22.4661C14.2393 22.9841 14.6593 23.4036 15.1768 23.4036H17.0518C17.5693 23.4036 17.9893 22.9841 17.9893 22.4661V20.5911C17.9893 20.0741 17.5693 19.6536 17.0518 19.6536Z" fill="#666666"/>
</g>
<defs>
<clipPath id="clip0_1102_485">
<rect width="30" height="30" fill="white" transform="translate(8.61426 0.907349)"/>
</clipPath>
</defs>
</svg>
