<svg width="24" height="25" viewBox="0 0 24 25" fill="none" xmlns="http://www.w3.org/2000/svg">
<path d="M11.2268 2.73031V3.85299H2.8067C1.87661 3.85299 1.12268 4.60697 1.12268 5.53701V21.2547C1.12268 22.1847 1.87666 22.9387 2.8067 22.9387H18.5243C19.4544 22.9387 20.2084 22.1847 20.2084 21.2547V12.8345H21.331V21.2547C21.331 22.8048 20.0744 24.0614 18.5243 24.0614H2.8067C1.2566 24.0614 0 22.8048 0 21.2547V5.53701C0 3.98691 1.2566 2.73031 2.8067 2.73031H11.2268ZM21.6594 5.53701L18.5239 2.40145L5.61292 15.3124V18.4477H8.74848L21.6594 5.53701ZM4.4903 19.5705V14.8475L18.5238 0.813965L23.2471 5.53723L9.21356 19.5707L4.4903 19.5705Z" fill="#F33FA2"/>
</svg>
