<svg width="18" height="16" viewBox="0 0 18 16" fill="none" xmlns="http://www.w3.org/2000/svg">
<path d="M8.75 4.16667V6.91667M8.75 9.66667H8.75917M17 15.1667L13.9527 13.643C13.7217 13.5275 13.6062 13.4697 13.4851 13.429C13.3777 13.3929 13.2671 13.3668 13.1548 13.351C13.0283 13.3333 12.8991 13.3333 12.6409 13.3333H3.43333C2.40657 13.3333 1.89319 13.3333 1.50102 13.1335C1.15605 12.9578 0.875586 12.6773 0.699824 12.3323C0.5 11.9402 0.5 11.4268 0.5 10.4V3.43333C0.5 2.40657 0.5 1.89319 0.699824 1.50102C0.875586 1.15605 1.15605 0.875586 1.50102 0.699824C1.89319 0.5 2.40657 0.5 3.43333 0.5H14.0667C15.0934 0.5 15.6069 0.5 15.999 0.699824C16.3439 0.875586 16.6244 1.15605 16.8002 1.50102C17 1.89319 17 2.40657 17 3.43333V15.1667Z" stroke="#F33FA2" stroke-linecap="round" stroke-linejoin="round"/>
</svg>
