<svg width="66" height="66" viewBox="0 0 66 66" fill="none" xmlns="http://www.w3.org/2000/svg">
<path d="M33.127 1.38965C41.552 1.38965 49.452 4.66465 55.402 10.6146C61.352 16.5646 64.627 24.4646 64.627 32.8896C64.627 41.3146 61.352 49.2146 55.402 55.1646C49.452 61.1147 41.552 64.3896 33.127 64.3896C24.702 64.3896 16.802 61.1147 10.852 55.1646C4.90195 49.2146 1.62695 41.3146 1.62695 32.8896C1.62695 24.4646 4.90195 16.5646 10.852 10.6146C16.802 4.66465 24.702 1.38965 33.127 1.38965ZM33.127 0.389648C15.177 0.389648 0.626953 14.9396 0.626953 32.8896C0.626953 50.8396 15.177 65.3896 33.127 65.3896C51.077 65.3896 65.627 50.8396 65.627 32.8896C65.627 14.9396 51.077 0.389648 33.127 0.389648Z" fill="#F33FA2"/>
<path d="M42.3025 35.3147C38.4525 35.3147 35.3525 38.4397 35.3525 42.2647C35.3525 46.0897 38.4775 49.2147 42.3025 49.2147C46.1275 49.2147 49.2525 46.0897 49.2525 42.2647C49.2525 38.4397 46.1525 35.3147 42.3025 35.3147ZM44.9775 42.9147H42.9525V44.9397C42.9525 45.2897 42.6775 45.5897 42.3025 45.5897C41.9275 45.5897 41.6525 45.3147 41.6525 44.9397V42.9147H39.6275C39.2775 42.9147 38.9775 42.6397 38.9775 42.2647C38.9775 41.8897 39.2525 41.6147 39.6275 41.6147H41.6525V39.5897C41.6525 39.2397 41.9275 38.9397 42.3025 38.9397C42.6775 38.9397 42.9525 39.2147 42.9525 39.5897V41.6147H44.9775C45.3275 41.6147 45.6275 41.8897 45.6275 42.2647C45.6275 42.6397 45.3525 42.9147 44.9775 42.9147Z" fill="#F33FA2"/>
<path d="M32.6771 30.4896C35.6271 30.4896 38.0271 28.0896 38.0271 25.1396V22.9896C38.0271 20.0396 35.6271 17.6396 32.6771 17.6396C29.7271 17.6396 27.3271 20.0396 27.3271 22.9896V25.1396C27.3271 28.0896 29.7271 30.4896 32.6771 30.4896ZM28.4021 23.0146C28.4021 20.6646 30.3271 18.7396 32.6771 18.7396C35.0271 18.7396 36.9521 20.6646 36.9521 23.0146V25.1646C36.9521 27.5146 35.0271 29.4396 32.6771 29.4396C30.3271 29.4396 28.4021 27.5146 28.4021 25.1646V23.0146Z" fill="#F33FA2"/>
<path d="M33.2271 42.2647H23.0521C23.0521 36.9647 27.3771 32.6397 32.6771 32.6397C34.8521 32.6397 36.8771 33.3397 38.5771 34.6647C38.8021 34.8397 39.1521 34.8147 39.3271 34.5647C39.5021 34.3397 39.4771 33.9897 39.2271 33.8147C37.3271 32.3397 35.0521 31.5647 32.6521 31.5647C26.7521 31.5647 21.9521 36.3647 21.9521 42.2647V42.7897C21.9521 43.0897 22.2021 43.3147 22.4771 43.3147H33.1771C33.4771 43.3147 33.7021 43.0647 33.7021 42.7897C33.7021 42.5147 33.5271 42.2647 33.2271 42.2647Z" fill="#F33FA2"/>
</svg>
