<svg width="24" height="23" viewBox="0 0 24 23" fill="none" xmlns="http://www.w3.org/2000/svg">
<path d="M10.5945 20.2157C5.01954 20.2157 0.484375 15.6807 0.484375 10.1056C0.484375 4.53068 5.01938 -0.00448608 10.5945 -0.00448608C16.1694 -0.00448608 20.7046 4.53052 20.7046 10.1056C20.7046 15.6806 16.1696 20.2157 10.5945 20.2157ZM10.5945 1.61323C5.91136 1.61323 2.10209 5.42261 2.10209 10.1056C2.10209 14.7885 5.91147 18.598 10.5945 18.598C15.2774 18.598 19.0869 14.7884 19.0869 10.1056C19.0869 5.4225 15.2773 1.61323 10.5945 1.61323Z" fill="black"/>
<path d="M22.3222 22.6419C22.1151 22.6419 21.908 22.5626 21.7503 22.4049L16.8974 17.552C16.5811 17.2357 16.5811 16.7247 16.8974 16.4084C17.2136 16.0921 17.7247 16.0921 18.041 16.4084L22.8939 21.2613C23.2102 21.5775 23.2102 22.0886 22.8939 22.4049C22.7362 22.5626 22.5293 22.6419 22.3222 22.6419Z" fill="black"/>
</svg>
