<svg width="65" height="66" viewBox="0 0 65 66" fill="none" xmlns="http://www.w3.org/2000/svg">
<path d="M32.5 1.38965C40.925 1.38965 48.825 4.66465 54.775 10.6146C60.725 16.5646 64 24.4646 64 32.8896C64 41.3146 60.725 49.2146 54.775 55.1646C48.825 61.1147 40.925 64.3896 32.5 64.3896C24.075 64.3896 16.175 61.1147 10.225 55.1646C4.275 49.2146 1 41.3146 1 32.8896C1 24.4646 4.275 16.5646 10.225 10.6146C16.175 4.66465 24.075 1.38965 32.5 1.38965ZM32.5 0.389648C14.55 0.389648 0 14.9396 0 32.8896C0 50.8396 14.55 65.3896 32.5 65.3896C50.45 65.3896 65 50.8396 65 32.8896C65 14.9396 50.45 0.389648 32.5 0.389648Z" fill="#F33FA2"/>
<path d="M40.0754 24.2397C39.5504 24.2397 39.1504 24.6647 39.1504 25.1647C39.1504 25.6897 39.5754 26.0897 40.0754 26.0897C40.6004 26.0897 41.0004 25.6647 41.0004 25.1647C41.0004 24.6647 40.6004 24.2397 40.0754 24.2397Z" fill="#F33FA2"/>
<path d="M32.5504 38.8896C29.2754 38.8896 26.6004 36.2146 26.6004 32.9396C26.6004 29.6646 29.2754 26.9896 32.5504 26.9896C35.8254 26.9896 38.5004 29.6646 38.5004 32.9396C38.5004 36.2146 35.8254 38.8896 32.5504 38.8896ZM32.5504 25.7896C28.6004 25.7896 25.4004 28.9896 25.4004 32.9396C25.4004 36.8896 28.6004 40.0896 32.5504 40.0896C36.5004 40.0896 39.7004 36.8896 39.7004 32.9396C39.7004 28.9896 36.4754 25.7896 32.5504 25.7896Z" fill="#F33FA2"/>
<path d="M44.675 40.9896C44.675 42.0646 44.25 43.0896 43.475 43.8646C42.7 44.6396 41.675 45.0646 40.6 45.0646H24.4C23.325 45.0646 22.3 44.6396 21.525 43.8646C20.75 43.0896 20.325 42.0646 20.325 40.9896V24.7896C20.325 23.7146 20.75 22.6896 21.525 21.9146C22.3 21.1396 23.325 20.7146 24.4 20.7146H40.6C41.675 20.7146 42.7 21.1396 43.475 21.9146C44.25 22.6896 44.675 23.7146 44.675 24.7896V40.9896ZM44.325 21.0646C43.325 20.0646 42 19.5146 40.6 19.5146H24.4C23 19.5146 21.675 20.0646 20.675 21.0646C19.675 22.0646 19.125 23.3896 19.125 24.7896V40.9896C19.125 42.3896 19.675 43.7146 20.675 44.7146C21.675 45.7146 23 46.2646 24.4 46.2646H40.6C42 46.2646 43.325 45.7146 44.325 44.7146C45.325 43.7146 45.875 42.3896 45.875 40.9896V24.7896C45.875 23.3896 45.325 22.0646 44.325 21.0646Z" fill="#F33FA2"/>
</svg>
