<svg width="65" height="67" viewBox="0 0 65 67" fill="none" xmlns="http://www.w3.org/2000/svg">
<path d="M32.5 1.90503C40.925 1.90503 48.825 5.23042 54.775 11.272C60.725 17.3135 64 25.335 64 33.8896C64 42.4443 60.725 50.4658 54.775 56.5073C48.825 62.5489 40.925 65.8743 32.5 65.8743C24.075 65.8743 16.175 62.5489 10.225 56.5073C4.275 50.4658 1 42.4443 1 33.8896C1 25.335 4.275 17.3135 10.225 11.272C16.175 5.23042 24.075 1.90503 32.5 1.90503ZM32.5 0.889648C14.55 0.889648 0 15.6635 0 33.8896C0 52.1158 14.55 66.8896 32.5 66.8896C50.45 66.8896 65 52.1158 65 33.8896C65 15.6635 50.45 0.889648 32.5 0.889648Z" fill="#F33FA2"/>
<path d="M43.9498 37.2659C40.7748 37.2659 38.1748 39.8805 38.1748 43.1297C38.1748 46.3789 40.7498 48.9936 43.9498 48.9936C47.1248 48.9936 49.7248 46.3789 49.7248 43.1297C49.7248 39.8805 47.1498 37.2659 43.9498 37.2659ZM46.1748 43.6628H44.4998V45.3636C44.4998 45.6682 44.2498 45.8966 43.9748 45.8966C43.6748 45.8966 43.4498 45.6428 43.4498 45.3636V43.6628H41.7498C41.4498 43.6628 41.2248 43.4089 41.2248 43.1297C41.2248 42.8505 41.4748 42.5966 41.7498 42.5966H43.4248V40.8959C43.4248 40.5913 43.6748 40.3628 43.9498 40.3628C44.2498 40.3628 44.4748 40.6166 44.4748 40.8959V42.5966H46.1498C46.4498 42.5966 46.6748 42.8505 46.6748 43.1297C46.6748 43.4089 46.4748 43.6628 46.1748 43.6628Z" fill="#F33FA2"/>
<path d="M35.9748 33.2045C38.4248 33.2045 40.3998 31.1737 40.3998 28.7114V26.9091C40.3998 24.4214 38.3998 22.416 35.9748 22.416C33.5498 22.416 31.5498 24.4468 31.5498 26.9091V28.7114C31.5498 31.1991 33.5248 33.2045 35.9748 33.2045ZM32.4248 26.9091C32.4248 24.9291 34.0248 23.3045 35.9748 23.3045C37.9248 23.3045 39.5248 24.9291 39.5248 26.9091V28.7114C39.5248 30.6914 37.9248 32.316 35.9748 32.316C34.0248 32.316 32.4248 30.6914 32.4248 28.7114V26.9091Z" fill="#F33FA2"/>
<path d="M36.4246 43.1297H27.9996C27.9996 38.662 31.5746 35.032 35.9746 35.032C37.7746 35.032 39.4746 35.6159 40.8746 36.7328C41.0746 36.8851 41.3496 36.8597 41.4996 36.6566C41.6496 36.4535 41.6246 36.1743 41.4246 36.022C39.8496 34.7782 37.9746 34.1182 35.9746 34.1182C31.0746 34.1182 27.0996 38.1543 27.0996 43.1297V43.5866C27.0996 43.8405 27.2996 44.0436 27.5496 44.0436H36.4246C36.6746 44.0436 36.8746 43.8405 36.8746 43.5866C36.8496 43.3328 36.6746 43.1297 36.4246 43.1297Z" fill="#F33FA2"/>
<path d="M24.1498 29.5997C26.5998 29.5997 28.5748 27.569 28.5748 25.1067V23.3044C28.5748 20.8167 26.5748 18.8113 24.1498 18.8113C21.7248 18.8113 19.7248 20.842 19.7248 23.3044V25.1067C19.6998 27.5944 21.6998 29.5997 24.1498 29.5997ZM20.5998 23.3044C20.5998 21.3244 22.1998 19.6997 24.1498 19.6997C26.0998 19.6997 27.6998 21.3244 27.6998 23.3044V25.1067C27.6998 27.0867 26.0998 28.7113 24.1498 28.7113C22.1998 28.7113 20.5998 27.0867 20.5998 25.1067V23.3044Z" fill="#F33FA2"/>
<path d="M24.6 39.5252H16.15C16.15 35.0575 19.725 31.4275 24.125 31.4275C25.925 31.4275 27.625 32.0114 29.025 33.1283C29.225 33.2806 29.5 33.2552 29.65 33.0521C29.8 32.8491 29.775 32.5698 29.575 32.4175C28 31.1737 26.125 30.5137 24.125 30.5137C19.225 30.5137 15.25 34.5498 15.25 39.5252V39.9821C15.25 40.236 15.45 40.4391 15.7 40.4391H24.575C24.825 40.4391 25.025 40.236 25.025 39.9821C25.025 39.7283 24.825 39.5252 24.6 39.5252Z" fill="#F33FA2"/>
</svg>
