<svg width="17" height="17" viewBox="0 0 17 17" fill="none" xmlns="http://www.w3.org/2000/svg">
<g clip-path="url(#clip0_1190_943)">
<path d="M16.9841 0.449439C16.9826 0.420531 16.9791 0.391768 16.9734 0.363377C16.9695 0.357233 16.9659 0.350846 16.9628 0.344252C16.9472 0.310305 16.9283 0.277929 16.9065 0.247564C16.8916 0.220124 16.8742 0.194153 16.8544 0.170002C16.8291 0.146334 16.8018 0.124998 16.7726 0.106252C16.7472 0.0855636 16.7198 0.0674146 16.6908 0.0520641C16.6608 0.0404929 16.6299 0.0316039 16.5984 0.0255016C16.5632 0.0133104 16.5269 0.0047655 16.49 1.62813e-06C16.4826 1.62813e-06 16.4762 1.62813e-06 16.4688 1.62813e-06C16.4393 0.00351423 16.4102 0.00919638 16.3816 0.0170016C16.3545 0.0184717 16.3275 0.0220238 16.3009 0.0276266L13.3259 1.02L11.3942 0.0563141C11.3859 0.0536899 11.3774 0.0515612 11.3687 0.0499391C11.3135 0.022553 11.2537 0.00562195 11.1924 1.62813e-06C11.1465 -0.000110816 11.1008 0.00560153 11.0564 0.0170016C11.0335 0.0182611 11.0108 0.0211012 10.9884 0.0255016L8.01337 1.01788L6.08175 0.0563141C6.00788 0.0192951 5.92638 1.9455e-05 5.84375 1.9455e-05C5.76112 1.9455e-05 5.67962 0.0192951 5.60575 0.0563141L3.67837 1.02L0.703376 0.0276266C0.676758 0.022286 0.649754 0.0190883 0.622625 0.0180641C0.592813 0.00914182 0.562215 0.0030934 0.53125 1.62813e-06C0.523812 1.62813e-06 0.517437 1.62813e-06 0.51 1.62813e-06C0.473922 0.00324334 0.438299 0.0103679 0.403749 0.0212516C0.370681 0.0267078 0.338276 0.0356105 0.307062 0.0478141C0.280269 0.0650682 0.255029 0.0846211 0.231625 0.106252C0.200767 0.125219 0.171928 0.147292 0.145562 0.172127C0.126395 0.195738 0.109332 0.22098 0.0945632 0.247564C0.072016 0.278392 0.0527836 0.311513 0.0371873 0.346377C0.0340548 0.352971 0.0305057 0.359358 0.0265621 0.365502C0.0209319 0.393893 0.0173805 0.422656 0.0159369 0.451564C0.00859752 0.477681 0.00327009 0.504321 0 0.531252V14.3438C0 15.0482 0.279854 15.7239 0.777998 16.222C1.27614 16.7201 1.95177 17 2.65625 17H14.3438C15.0482 17 15.7239 16.7201 16.222 16.222C16.7201 15.7239 17 15.0482 17 14.3438V0.531252C16.9968 0.503606 16.9915 0.476251 16.9841 0.449439ZM14.3438 15.9375H2.65625C2.23356 15.9375 1.82819 15.7696 1.5293 15.4707C1.23041 15.1718 1.0625 14.7664 1.0625 14.3438V1.26863L3.55087 2.09738C3.61698 2.12015 3.687 2.12935 3.75674 2.12442C3.82648 2.11949 3.89451 2.10053 3.95675 2.06869L5.84375 1.12519L7.73075 2.06869C7.80462 2.10571 7.88612 2.125 7.96875 2.125C8.02585 2.12518 8.08259 2.11584 8.13663 2.09738L11.1116 1.105L13.0401 2.06869C13.1149 2.1062 13.1975 2.1255 13.2812 2.125C13.3384 2.12518 13.3951 2.11584 13.4491 2.09738L15.9375 1.26863V14.3438C15.9375 14.7664 15.7696 15.1718 15.4707 15.4707C15.1718 15.7696 14.7664 15.9375 14.3438 15.9375ZM3.1875 4.78125C3.1875 4.64036 3.24347 4.50523 3.3431 4.4056C3.44273 4.30597 3.57785 4.25 3.71875 4.25H7.96875C8.10965 4.25 8.24477 4.30597 8.3444 4.4056C8.44403 4.50523 8.5 4.64036 8.5 4.78125C8.5 4.92215 8.44403 5.05727 8.3444 5.1569C8.24477 5.25653 8.10965 5.3125 7.96875 5.3125H3.71875C3.57785 5.3125 3.44273 5.25653 3.3431 5.1569C3.24347 5.05727 3.1875 4.92215 3.1875 4.78125ZM13.8125 9.03125C13.8125 9.17215 13.7565 9.30727 13.6569 9.4069C13.5573 9.50653 13.4221 9.5625 13.2812 9.5625H3.71875C3.57785 9.5625 3.44273 9.50653 3.3431 9.4069C3.24347 9.30727 3.1875 9.17215 3.1875 9.03125C3.1875 8.89036 3.24347 8.75523 3.3431 8.6556C3.44273 8.55597 3.57785 8.5 3.71875 8.5H13.2812C13.4221 8.5 13.5573 8.55597 13.6569 8.6556C13.7565 8.75523 13.8125 8.89036 13.8125 9.03125ZM13.8125 13.2813C13.8125 13.4221 13.7565 13.5573 13.6569 13.6569C13.5573 13.7565 13.4221 13.8125 13.2812 13.8125H3.71875C3.57785 13.8125 3.44273 13.7565 3.3431 13.6569C3.24347 13.5573 3.1875 13.4221 3.1875 13.2813C3.1875 13.1404 3.24347 13.0052 3.3431 12.9056C3.44273 12.806 3.57785 12.75 3.71875 12.75H13.2812C13.4221 12.75 13.5573 12.806 13.6569 12.9056C13.7565 13.0052 13.8125 13.1404 13.8125 13.2813Z" fill="#F33FA2"/>
</g>
<defs>
<clipPath id="clip0_1190_943">
<rect width="17" height="17" fill="white"/>
</clipPath>
</defs>
</svg>
