<svg width="29" height="27" viewBox="0 0 29 27" fill="none" xmlns="http://www.w3.org/2000/svg">
<g clip-path="url(#clip0_525_2932)">
<path d="M6.88998 13.0288C7.70346 14.437 8.6377 15.7883 9.85678 17.0234C11.0736 18.2652 12.5912 19.393 14.5553 20.3567C14.7012 20.4246 14.8402 20.4246 14.9609 20.3786C15.1478 20.3107 15.3392 20.1617 15.5261 19.9822C15.6719 19.842 15.8519 19.6186 16.041 19.3755C16.7953 18.4207 17.7318 17.2359 19.0511 17.8272C19.0807 17.8403 19.1035 17.8556 19.1309 17.8688L23.5355 20.3019C23.5492 20.3085 23.5651 20.3238 23.5788 20.3304C24.1598 20.7136 24.3991 21.3071 24.4059 21.9773C24.4059 22.6606 24.1439 23.4293 23.7611 24.0753C23.2552 24.9316 22.5055 25.4988 21.6442 25.8733C20.8239 26.2369 19.9102 26.4318 19.0329 26.5566C17.6543 26.7515 16.3646 26.6267 15.0453 26.2369C13.7533 25.8536 12.4544 25.2185 11.0348 24.3754L10.93 24.3118C10.2783 23.922 9.57423 23.5015 8.8838 23.0088C6.3545 21.1735 3.77963 18.5258 2.10255 15.6109C0.694344 13.1624 -0.0735597 10.5212 0.345711 8.00272C0.578133 6.623 1.19337 5.36812 2.26889 4.5381C3.20541 3.8132 4.4655 3.41461 6.09929 3.55477C6.28614 3.56791 6.45476 3.67304 6.54135 3.82634L9.36459 8.41225C9.77703 8.92691 9.82944 9.43719 9.60385 9.94746C9.417 10.3658 9.03875 10.7512 8.52377 11.1104C8.3711 11.2352 8.19109 11.3622 8.00196 11.4936C7.37078 11.9338 6.653 12.4419 6.8991 13.042L6.88998 13.0288ZM16.9456 2.29989C16.8294 2.29113 16.7201 2.26047 16.6221 2.21229C16.5195 2.16192 16.4307 2.09403 16.3578 2.01299C16.2848 1.92977 16.2279 1.8356 16.1914 1.73048C16.1595 1.62974 16.1458 1.52243 16.155 1.41074L16.1572 1.39541C16.1664 1.2881 16.1983 1.18735 16.2461 1.09756L16.2552 1.08223C16.3053 0.990252 16.3737 0.909221 16.4535 0.84571C16.5378 0.77563 16.638 0.720879 16.7474 0.685838C16.8499 0.652988 16.9593 0.639848 17.071 0.646418L17.0938 0.648608C17.8753 0.707739 18.6296 0.82162 19.3542 0.988062C20.0856 1.15669 20.7829 1.38227 21.4414 1.65602C22.1045 1.93415 22.7289 2.26485 23.3099 2.64591C23.8887 3.02698 24.4287 3.45841 24.9186 3.93803C25.404 4.41326 25.8438 4.93668 26.2334 5.5039C26.6185 6.06673 26.9535 6.67337 27.236 7.31724C27.5095 7.94797 27.7328 8.61812 27.9014 9.32768C28.0654 10.0219 28.1771 10.7512 28.2318 11.5133L28.2341 11.5506V11.59C28.2341 11.6907 28.2158 11.7893 28.1817 11.8813C28.1452 11.9798 28.0905 12.0674 28.0199 12.1441C27.9492 12.2207 27.8649 12.2842 27.7692 12.3324C27.6803 12.3784 27.5778 12.4069 27.4707 12.42L27.4251 12.4244H27.3818C27.2748 12.4266 27.1722 12.4091 27.0765 12.374C26.9762 12.339 26.8828 12.2864 26.8031 12.2185C26.7188 12.1484 26.6481 12.0608 26.598 11.9623C26.5501 11.8681 26.5182 11.7608 26.5114 11.6513C26.4636 10.9746 26.3678 10.3307 26.2243 9.72408C26.0807 9.1043 25.8871 8.51956 25.6501 7.96987C25.4131 7.41798 25.1283 6.90113 24.8024 6.42371C24.472 5.93971 24.1006 5.49733 23.6904 5.09436C23.2757 4.68921 22.8223 4.32566 22.3301 4.00373C21.8356 3.67961 21.3024 3.39928 20.7328 3.16276L20.7236 3.15838C20.1585 2.92405 19.5593 2.73132 18.9281 2.58678C18.2992 2.44881 17.6384 2.35026 16.9456 2.29989ZM15.0498 10.1095C14.9336 10.0986 14.8242 10.0635 14.7285 10.0154C14.6283 9.96279 14.5394 9.89271 14.471 9.80949C14.405 9.73065 14.3525 9.63867 14.3184 9.54012C14.2865 9.44814 14.2728 9.34958 14.2774 9.24884C14.2796 9.22037 14.2796 9.19847 14.2842 9.17219C14.3001 9.06707 14.3366 8.96852 14.3867 8.88311C14.4391 8.79332 14.5098 8.71448 14.5918 8.65097C14.6738 8.58746 14.7695 8.53709 14.8721 8.50423C14.9678 8.47576 15.0703 8.46043 15.1774 8.46481L15.2572 8.47138C15.5967 8.50642 15.9225 8.56337 16.237 8.64002C16.556 8.71886 16.8591 8.8196 17.1439 8.93786L17.153 8.94224C17.4424 9.06488 17.7136 9.20723 17.9665 9.37148C18.2217 9.53793 18.4587 9.72408 18.6774 9.93432C18.8939 10.1424 19.0899 10.3679 19.263 10.6132C19.4362 10.8563 19.5866 11.1169 19.7165 11.3973C19.8418 11.671 19.9466 11.9623 20.0287 12.2689C20.1084 12.5689 20.1654 12.8887 20.2018 13.2259C20.2132 13.3376 20.2018 13.4471 20.1722 13.5479L20.1699 13.5566C20.138 13.6574 20.0833 13.7515 20.0173 13.8326L20.015 13.837C19.9443 13.9202 19.8578 13.9881 19.7575 14.0406C19.6618 14.091 19.5524 14.1238 19.4362 14.1348H19.4248C19.3132 14.1436 19.2038 14.1326 19.1012 14.1041C18.9919 14.0735 18.8916 14.0209 18.805 13.953H18.8027C18.7162 13.8851 18.6432 13.8019 18.5886 13.7034C18.5361 13.6114 18.502 13.5063 18.4906 13.3968V13.388C18.4655 13.1493 18.4245 12.9215 18.3675 12.7047C18.3106 12.4835 18.2376 12.2777 18.1511 12.0871C18.0645 11.8966 17.9642 11.7192 17.8503 11.5571C17.7341 11.3929 17.6065 11.244 17.4652 11.1082C17.3239 10.9724 17.1667 10.8498 16.9958 10.7403C16.8249 10.6308 16.638 10.5344 16.4352 10.449L16.4238 10.4446C16.2256 10.3614 16.0114 10.2935 15.7858 10.2387C15.5488 10.1752 15.305 10.1358 15.0498 10.1095ZM15.9613 6.3383H15.9385L15.9089 6.33392C15.8018 6.32297 15.7015 6.29231 15.6126 6.24851C15.5169 6.20033 15.4326 6.13682 15.362 6.06235C15.2891 5.98351 15.2321 5.89372 15.1956 5.79298C15.1615 5.69881 15.1432 5.59807 15.1455 5.49076V5.45353L15.1501 5.41849C15.1615 5.31775 15.1934 5.22138 15.2389 5.13597C15.2891 5.04399 15.3552 4.96077 15.4326 4.89507C15.5169 4.8228 15.6149 4.76805 15.7243 4.73082C15.8291 4.69578 15.9408 4.68045 16.057 4.68702C16.6631 4.72206 17.2396 4.79652 17.7842 4.90821C18.3311 5.0199 18.8483 5.17101 19.3291 5.35936C19.8145 5.54989 20.2679 5.77984 20.6872 6.04702C21.1019 6.31202 21.4847 6.61643 21.8288 6.96027C22.1706 7.29972 22.4759 7.6764 22.7402 8.08813C23.0023 8.49547 23.2279 8.93786 23.4102 9.4131C23.5879 9.87738 23.7292 10.3767 23.8294 10.9111C23.9274 11.4367 23.9867 11.9908 24.0049 12.5799L24.0072 12.6105C24.0072 12.7157 23.9867 12.8186 23.9456 12.9128C23.9046 13.0113 23.8454 13.0989 23.7725 13.1756C23.6973 13.2544 23.6039 13.3179 23.499 13.3617C23.4011 13.4055 23.2894 13.4296 23.1732 13.434H23.1345C23.0251 13.4318 22.9225 13.4121 22.8268 13.3749C22.7243 13.3354 22.6331 13.2785 22.5557 13.2084C22.4736 13.134 22.4076 13.0464 22.3597 12.9456C22.3141 12.8492 22.2891 12.7441 22.2845 12.6302C22.2708 12.1397 22.2207 11.6776 22.141 11.2418C22.0612 10.8016 21.9473 10.392 21.806 10.0154C21.6647 9.63867 21.4915 9.29264 21.291 8.97509C21.0882 8.65535 20.8558 8.36845 20.596 8.10784C20.3317 7.84723 20.04 7.61289 19.7188 7.40922C19.3952 7.20336 19.0374 7.02597 18.6546 6.87704L18.6455 6.87266C18.2581 6.72593 17.8434 6.60548 17.3991 6.51569C16.9525 6.4259 16.4762 6.36458 15.9749 6.33611L15.9613 6.3383Z" fill="white"/>
</g>
<defs>
<clipPath id="clip0_525_2932">
<rect width="28" height="26" fill="white" transform="translate(0.231445 0.646484)"/>
</clipPath>
</defs>
</svg>
