<svg width="16" height="15" viewBox="0 0 16 15" fill="none" xmlns="http://www.w3.org/2000/svg">
<path d="M10.1602 1.79272C11.2131 1.42054 12.4435 1.18905 13.4893 1.50464L13.6953 1.57495C14.77 1.98515 15.3769 2.82543 15.4834 3.93726C15.5924 5.0764 15.175 6.54027 14.0752 8.1062C12.9692 9.68084 11.388 11.1506 10.0664 12.2361C9.40868 12.7763 8.82178 13.2167 8.39941 13.5212C8.24198 13.6347 8.10636 13.7277 8 13.8015C7.89372 13.7278 7.75878 13.6345 7.60156 13.5212C7.17922 13.217 6.59133 12.7779 5.93359 12.238C4.61211 11.1533 3.03171 9.68354 1.92578 8.10913C0.825781 6.54316 0.407475 5.07877 0.516602 3.93921C0.623133 2.82698 1.2307 1.9864 2.30566 1.57495C3.39315 1.15884 4.71788 1.39574 5.84082 1.79272C6.39077 1.98714 6.86767 2.21097 7.20703 2.38647C7.37605 2.47388 7.50989 2.54889 7.60059 2.60132C7.64585 2.62749 7.6806 2.64824 7.70312 2.66187C7.71434 2.66865 7.72237 2.6743 7.72754 2.67749C7.73012 2.67908 7.73239 2.67979 7.7334 2.68042L7.73438 2.6814V2.68042L8 2.84839L8.26562 2.68042L8.2666 2.6814L8.26758 2.68042C8.26856 2.67981 8.27022 2.67887 8.27246 2.67749C8.27762 2.6743 8.28659 2.66868 8.29785 2.66187C8.32037 2.64825 8.35438 2.62735 8.39941 2.60132C8.49014 2.54887 8.62465 2.47401 8.79395 2.38647C9.13332 2.211 9.61029 1.9871 10.1602 1.79272Z" stroke="#F33FA2"/>
</svg>
