<svg width="46" height="46" viewBox="0 0 46 46" fill="none" xmlns="http://www.w3.org/2000/svg">
<rect x="0.734375" y="0.141968" width="45" height="45" rx="22.5" fill="#FFEAF6"/>
<rect x="14.2344" y="13.642" width="18" height="18" rx="3" fill="#F33FA2"/>
<path fill-rule="evenodd" clip-rule="evenodd" d="M19.696 28.8359V20.4774H16.9181V28.8358H19.696V28.8359ZM18.3074 19.3366C19.2758 19.3366 19.879 18.6942 19.879 17.8922C19.8607 17.0723 19.2758 16.448 18.3255 16.448C17.3751 16.4481 16.7539 17.0723 16.7539 17.8922C16.7539 18.6943 17.3568 19.3366 18.2891 19.3366L18.3074 19.3366ZM21.2335 28.8359C21.2335 28.8359 21.2699 21.2617 21.2335 20.4774H24.0118V21.6896H23.9933C24.3587 21.1192 25.0168 20.2812 26.5153 20.2812C28.3436 20.2812 29.7139 21.4758 29.7139 24.0432V28.8359H26.936V24.3643C26.936 23.2408 26.5341 22.4741 25.5285 22.4741C24.7612 22.4741 24.3039 22.991 24.1031 23.4906C24.0297 23.6684 24.0118 23.9182 24.0118 24.168V28.8359H21.2335Z" fill="white"/>
</svg>
