<svg width="22" height="23" viewBox="0 0 22 23" fill="none" xmlns="http://www.w3.org/2000/svg">
<path d="M11.0002 20.3553C10.7539 20.3565 10.5107 20.2998 10.2904 20.1897C10.07 20.0797 9.87857 19.9194 9.7315 19.7219L5.09225 13.5417C4.32465 12.4592 3.86949 11.1865 3.77656 9.86275C3.68362 8.53899 3.95649 7.21517 4.56532 6.03606C5.17415 4.85695 6.09549 3.86796 7.22859 3.17726C8.36168 2.48656 9.66289 2.12074 10.9899 2.11981C12.3169 2.11889 13.6186 2.48289 14.7527 3.172C15.8867 3.86112 16.8095 4.84882 17.4199 6.02708C18.0304 7.20533 18.3051 8.52877 18.2141 9.85266C18.123 11.1765 17.6696 12.4499 16.9035 13.5334L12.2698 19.72C12.1227 19.918 11.9312 20.0786 11.7107 20.1889C11.4901 20.2993 11.2468 20.3562 11.0002 20.3553ZM10.9928 3.06052C9.44352 3.05566 7.94775 3.62711 6.79634 4.66377C5.6417 5.69475 4.90582 7.1138 4.72839 8.65153C4.55096 10.1893 4.94433 11.7386 5.83384 13.0054L10.4639 19.1719C10.526 19.2552 10.6068 19.3229 10.6997 19.3694C10.7927 19.4159 10.8953 19.4399 10.9993 19.4395C11.1034 19.4397 11.2062 19.4156 11.2994 19.3691C11.3927 19.3226 11.4738 19.2551 11.5364 19.1719L16.1601 12.999C16.7909 12.1063 17.1787 11.0648 17.2853 9.97694C17.3919 8.88903 17.2136 7.79211 16.768 6.79393C16.3224 5.79576 15.6248 4.93067 14.7438 4.28366C13.8627 3.63666 12.8285 3.22999 11.7427 3.10361C11.4937 3.07518 11.2434 3.06079 10.9928 3.06052Z" fill="#666666"/>
<path d="M11.0007 11.7083C10.5474 11.7083 10.1043 11.5739 9.72747 11.3221C9.35061 11.0703 9.05688 10.7124 8.88343 10.2937C8.70998 9.8749 8.66459 9.41413 8.75302 8.96959C8.84144 8.52505 9.0597 8.11671 9.3802 7.79621C9.70069 7.47572 10.109 7.25746 10.5536 7.16903C10.9981 7.08061 11.4589 7.12599 11.8776 7.29944C12.2964 7.47289 12.6543 7.76662 12.9061 8.14349C13.1579 8.52035 13.2923 8.96342 13.2923 9.41667C13.2923 10.0245 13.0509 10.6074 12.6211 11.0371C12.1913 11.4669 11.6084 11.7083 11.0007 11.7083ZM11.0007 8.04167C10.7287 8.04167 10.4629 8.12231 10.2367 8.2734C10.0106 8.42448 9.83439 8.63923 9.73032 8.89048C9.62625 9.14173 9.59902 9.41819 9.65207 9.68492C9.70513 9.95164 9.83608 10.1966 10.0284 10.3889C10.2207 10.5812 10.4657 10.7122 10.7324 10.7652C10.9991 10.8183 11.2756 10.7911 11.5268 10.687C11.7781 10.5829 11.9928 10.4067 12.1439 10.1806C12.295 9.95446 12.3757 9.68862 12.3757 9.41667C12.3757 9.052 12.2308 8.70226 11.9729 8.4444C11.7151 8.18653 11.3653 8.04167 11.0007 8.04167Z" fill="#666666"/>
</svg>
