<svg width="31" height="27" viewBox="0 0 31 27" fill="none" xmlns="http://www.w3.org/2000/svg">
<path fill-rule="evenodd" clip-rule="evenodd" d="M27.7957 8.6383C28.7274 9.25275 29.2734 10.2087 29.2734 11.2234V21.9798C29.2734 23.7748 27.5946 25.2298 25.5234 25.2298H5.52344C3.45238 25.2298 1.77344 23.7748 1.77344 21.9798V11.2234C1.77344 10.2087 2.31937 9.25275 3.25124 8.6383C5.98268 6.83721 11.6876 3.07727 13.2734 2.04648C14.6068 1.17982 16.4401 1.17982 17.7734 2.04648C19.3592 3.07725 25.0642 6.83721 27.7957 8.6383ZM4.27344 11.3294L13.1998 17.4369C14.5622 18.3691 16.4847 18.3691 17.8471 17.4369L26.7734 11.3294V21.9798C26.7734 22.5781 26.2138 23.0631 25.5234 23.0631H5.52344C4.83309 23.0631 4.27344 22.5781 4.27344 21.9798V11.3294ZM16.2734 3.77982L25.2474 9.61295L16.2979 15.7362C15.8438 16.0471 15.2031 16.0471 14.7489 15.7362L5.7994 9.61295L14.7734 3.77982C15.2179 3.49093 15.8289 3.49093 16.2734 3.77982Z" fill="#F33FA2"/>
</svg>
