<svg width="22" height="23" viewBox="0 0 22 23" fill="none" xmlns="http://www.w3.org/2000/svg">
<path d="M15.125 1.44189H6.875C5.83138 1.44327 4.98575 2.28889 4.98438 3.33252V19.8325C4.98575 20.8761 5.83138 21.7218 6.875 21.7231H15.125C16.1686 21.7218 17.0142 20.8761 17.0156 19.8325V3.33252C17.0142 2.28889 16.1686 1.44327 15.125 1.44189ZM15.9844 19.8325C15.9837 20.3069 15.5994 20.6912 15.125 20.6919H6.875C6.40062 20.6912 6.01631 20.3069 6.01562 19.8325V3.33252C6.01631 2.85814 6.40062 2.47383 6.875 2.47314H15.125C15.5994 2.47383 15.9837 2.85814 15.9844 3.33252V19.8325ZM12.375 18.2856H9.625C9.34037 18.2856 9.10938 18.5166 9.10938 18.8013C9.10938 19.0859 9.34037 19.3169 9.625 19.3169H12.375C12.6596 19.3169 12.8906 19.0859 12.8906 18.8013C12.8906 18.5166 12.6596 18.2856 12.375 18.2856Z" fill="#666666"/>
</svg>
