<svg width="29" height="29" viewBox="0 0 29 29" fill="none" xmlns="http://www.w3.org/2000/svg">
<g clip-path="url(#clip0_525_2960)">
<path fill-rule="evenodd" clip-rule="evenodd" d="M1.33463 4.39789L3.85288 1.88662C4.54763 1.19274 5.67552 1.19274 6.37115 1.88662L10.1485 6.90914C10.7251 7.75876 10.8433 8.72651 10.1485 9.42038L8.60677 10.9577C9.74952 12.489 11.1215 14.1585 12.6659 15.6985C14.4124 17.4397 16.3549 19.0226 18.1014 20.3229L19.5915 18.838C20.2863 18.1441 21.2566 18.2614 22.1098 18.838L27.1463 22.6049C27.9906 23.1868 27.8419 24.4222 27.1463 25.1161L24.628 27.6265C23.2368 29.0143 21.4281 28.5698 19.5915 27.6265C19.5915 27.6265 14.0326 24.515 9.27351 19.769C4.79701 15.3048 1.33463 9.42038 1.33463 9.42038C0.612761 7.44026 -0.0566158 5.78477 1.33463 4.39789Z" fill="#F33FA2"/>
</g>
<defs>
<clipPath id="clip0_525_2960">
<rect width="28" height="28" fill="white" transform="matrix(-1 0 0 1 28.5234 0.519043)"/>
</clipPath>
</defs>
</svg>
