<svg width="31" height="31" viewBox="0 0 31 31" fill="none" xmlns="http://www.w3.org/2000/svg">
<rect x="0.806152" y="0.0167236" width="30" height="30" rx="15" fill="#800046"/>
<g clip-path="url(#clip0_1023_447)">
<path d="M22.3414 16.5258L21.5559 17.3113C20.9837 17.8835 20.4114 18.4558 19.8391 19.0281C19.2655 19.6017 18.6904 20.1768 18.1167 20.7505C17.85 21.0172 17.5863 21.2867 17.3167 21.5505C16.9852 21.8748 16.4764 22.0189 16.0295 21.8704C15.819 21.7998 15.6374 21.6903 15.4803 21.5332C15.3866 21.4409 15.2943 21.3472 15.2007 21.2536C14.7582 20.8111 14.3157 20.3686 13.8732 19.9261L10.3576 16.4105C10.0462 16.0991 9.73492 15.7878 9.42352 15.4764C9.08626 15.1391 8.87866 14.6937 8.89457 14.2094C8.90029 14.0437 8.90899 13.8794 8.91619 13.7135C8.95076 12.9121 8.98394 12.1107 9.01851 11.3107C9.043 10.7457 9.06462 10.1806 9.0906 9.61564C9.10651 9.26534 9.23617 8.93094 9.48989 8.68306C9.74074 8.43804 10.0636 8.3126 10.4109 8.2967C10.5983 8.288 10.7857 8.28079 10.9745 8.27221C11.7875 8.23764 12.599 8.20297 13.412 8.16841C13.9424 8.14529 14.4729 8.11942 15.0033 8.10066C15.4861 8.08475 15.933 8.29235 16.2703 8.62961L18.0029 10.3623C18.614 10.9734 19.2253 11.5846 19.8379 12.1972C20.3854 12.7521 20.9346 13.3014 21.4852 13.8505L22.3241 14.6894C22.4725 14.8378 22.5735 15.005 22.6469 15.2011C22.732 15.4245 22.7276 15.6666 22.6858 15.8987C22.6427 16.1338 22.5057 16.3571 22.3414 16.5258C22.1309 16.742 21.7345 16.7536 21.5255 16.5258C21.3122 16.2924 21.3006 15.9421 21.5255 15.71C21.5457 15.6898 21.5644 15.6682 21.5817 15.6466C21.5515 15.6855 21.5212 15.7244 21.4908 15.7633C21.5283 15.7143 21.5601 15.6624 21.5846 15.6062C21.5658 15.6523 21.5457 15.6984 21.5269 15.7445C21.5529 15.6825 21.5701 15.6191 21.5787 15.5528C21.5715 15.6033 21.5643 15.6551 21.5586 15.7056C21.5658 15.6466 21.5658 15.5874 21.5586 15.5283C21.5658 15.5788 21.573 15.6307 21.5787 15.6811C21.57 15.6149 21.5527 15.5513 21.5269 15.4894C21.5457 15.5356 21.5658 15.5817 21.5846 15.6278C21.5586 15.5716 21.5284 15.5196 21.4908 15.4707C21.5211 15.5096 21.5514 15.5485 21.5817 15.5874C21.5183 15.5096 21.4433 15.4418 21.3727 15.3712C21.2257 15.2242 21.0773 15.0757 20.9302 14.9287C20.4387 14.4372 19.9472 13.9456 19.4556 13.4541C18.8603 12.8588 18.2636 12.2621 17.6683 11.6668C17.1595 11.158 16.6492 10.6477 16.1404 10.1389C15.8997 9.89821 15.6589 9.65607 15.4183 9.41677C15.3837 9.38221 15.3462 9.34902 15.3073 9.31881C15.3462 9.34902 15.3851 9.37935 15.424 9.40968C15.3505 9.35349 15.2712 9.30737 15.1862 9.27132C15.2323 9.29008 15.2784 9.31023 15.3246 9.329C15.2323 9.29009 15.1372 9.26411 15.0378 9.25118C15.0882 9.25839 15.1401 9.2656 15.1906 9.27132C14.996 9.2482 14.7928 9.27281 14.5981 9.28002C14.2305 9.29592 13.8629 9.31172 13.4939 9.32762C12.6479 9.36367 11.8017 9.39972 10.9556 9.43577C10.7467 9.44447 10.529 9.43863 10.3214 9.46747C10.3719 9.46026 10.4237 9.45305 10.4742 9.44733C10.4093 9.4574 10.3488 9.47468 10.2882 9.49917C10.3343 9.4804 10.3805 9.46026 10.4266 9.44149C10.3675 9.46747 10.3142 9.49917 10.2622 9.53659C10.3012 9.50638 10.3401 9.47605 10.379 9.44572C10.3242 9.48898 10.2752 9.53659 10.2334 9.59129C10.2636 9.55238 10.2939 9.51348 10.3243 9.47456C10.2869 9.5264 10.255 9.57973 10.2292 9.6389C10.2479 9.59278 10.2681 9.54666 10.2869 9.50054C10.2624 9.56108 10.2451 9.62311 10.235 9.68651C10.2422 9.63604 10.2494 9.5842 10.2552 9.53373C10.232 9.70528 10.2364 9.88403 10.2292 10.0555C10.2133 10.4303 10.1975 10.8051 10.1816 11.1784C10.1455 12.0187 10.1095 12.8605 10.0749 13.7009C10.0648 13.9301 10.0345 14.1737 10.0605 14.4029C10.0533 14.3524 10.0461 14.3006 10.0403 14.2501C10.0548 14.3495 10.0807 14.4446 10.1182 14.5369C10.0994 14.4908 10.0793 14.4446 10.0605 14.3985C10.0979 14.4836 10.1441 14.5614 10.1988 14.6363C10.1686 14.5974 10.1383 14.5585 10.108 14.5196C10.1786 14.6105 10.2651 14.6897 10.3458 14.7705L15.5709 19.9956C15.8159 20.2406 16.0596 20.4871 16.3061 20.7307C16.3292 20.7524 16.3522 20.774 16.3767 20.7941C16.3378 20.7639 16.2989 20.7336 16.2599 20.7033C16.3089 20.7407 16.3609 20.7725 16.4171 20.797C16.371 20.7782 16.3248 20.7581 16.2787 20.7393C16.3407 20.7653 16.4041 20.7826 16.4704 20.7912C16.4199 20.7839 16.3681 20.7767 16.3176 20.771C16.3767 20.7782 16.4358 20.7782 16.4949 20.771C16.4444 20.7782 16.3926 20.7854 16.3421 20.7912C16.4084 20.7825 16.4719 20.7652 16.5338 20.7393C16.4877 20.7581 16.4416 20.7782 16.3954 20.797C16.4516 20.771 16.5036 20.7408 16.5526 20.7033C16.5137 20.7335 16.4748 20.7638 16.4358 20.7941C16.5021 20.7393 16.5613 20.6759 16.6218 20.6154C16.7414 20.4958 16.8611 20.3761 16.9793 20.2579L18.1742 19.063C18.6614 18.5758 19.1485 18.0886 19.6358 17.6013L20.8985 16.3387C21.1032 16.134 21.305 15.925 21.5139 15.7232C21.5168 15.7204 21.5197 15.7175 21.5226 15.7145C21.736 15.5012 22.128 15.4853 22.3385 15.7145C22.5519 15.9407 22.5692 16.2982 22.3415 16.5259L22.3414 16.5258Z" fill="white"/>
<path d="M12.406 10.5325C12.5458 10.6838 12.6294 10.8656 12.6308 11.0745C12.6323 11.2763 12.5472 11.4738 12.406 11.6165C12.1148 11.9105 11.6146 11.9105 11.3235 11.6165C11.0308 11.321 11.028 10.8295 11.3235 10.534C11.4662 10.3913 11.6636 10.3092 11.8655 10.3092C12.0716 10.3092 12.2547 10.3942 12.406 10.5325C12.5126 10.6305 12.5746 10.7978 12.5746 10.9404C12.5746 11.0816 12.5112 11.2503 12.406 11.3483C12.2964 11.4492 12.1522 11.5242 11.9981 11.517C11.841 11.5098 11.707 11.455 11.5902 11.3483C11.583 11.3411 11.5758 11.3339 11.5671 11.3282C11.606 11.3584 11.6449 11.3887 11.6838 11.419C11.6709 11.4103 11.6593 11.4031 11.6449 11.3974C11.691 11.4162 11.7372 11.4363 11.7833 11.4551C11.7689 11.4493 11.7559 11.4464 11.7415 11.4435C11.792 11.4507 11.8438 11.4579 11.8943 11.4637C11.8741 11.4608 11.8569 11.4608 11.8366 11.4637C11.8871 11.4564 11.9389 11.4492 11.9894 11.4435C11.975 11.4464 11.962 11.4507 11.9476 11.4551C11.9937 11.4363 12.0399 11.4162 12.086 11.3974C12.0716 11.4031 12.06 11.4103 12.0471 11.419C12.086 11.3888 12.1249 11.3585 12.1638 11.3282C12.1465 11.3411 12.1336 11.3555 12.1205 11.3714C12.1507 11.3325 12.1811 11.2936 12.2114 11.2547C12.2027 11.2676 12.1955 11.2792 12.1898 11.2936C12.2085 11.2475 12.2287 11.2014 12.2475 11.1552C12.2417 11.1696 12.2388 11.1826 12.2359 11.197C12.2431 11.1465 12.2503 11.0947 12.256 11.0442C12.2532 11.0644 12.2532 11.0816 12.256 11.1019C12.2488 11.0514 12.2416 10.9996 12.2359 10.9491C12.2388 10.9635 12.2431 10.9765 12.2475 10.9909C12.2287 10.9448 12.2085 10.8987 12.1898 10.8525C12.1955 10.867 12.2027 10.8785 12.2114 10.8914C12.1812 10.8525 12.1509 10.8136 12.1205 10.7747C12.1335 10.792 12.1479 10.8049 12.1638 10.818C12.1249 10.7878 12.086 10.7574 12.0471 10.7271C12.06 10.7358 12.0716 10.743 12.086 10.7487C12.0399 10.73 11.9937 10.7098 11.9476 10.6911C11.962 10.6968 11.975 10.6998 11.9894 10.7026C11.9389 10.6954 11.8871 10.6882 11.8366 10.6825C11.8568 10.6853 11.874 10.6853 11.8943 10.6825C11.8438 10.6897 11.792 10.6969 11.7415 10.7026C11.7559 10.6998 11.7689 10.6954 11.7833 10.6911C11.7372 10.7098 11.691 10.73 11.6449 10.7487C11.6593 10.743 11.6709 10.7358 11.6838 10.7271C11.6449 10.7573 11.606 10.7876 11.5671 10.818C11.5844 10.805 11.5973 10.7906 11.6104 10.7747C11.5802 10.8136 11.5498 10.8525 11.5195 10.8914C11.5282 10.8785 11.5354 10.867 11.5411 10.8525C11.5224 10.8987 11.5022 10.9448 11.4834 10.9909C11.4892 10.9765 11.4921 10.9635 11.495 10.9491C11.4878 10.9996 11.4806 11.0514 11.4749 11.1019C11.4777 11.0818 11.4777 11.0645 11.4749 11.0442C11.4821 11.0947 11.4893 11.1465 11.495 11.197C11.4921 11.1826 11.4878 11.1696 11.4834 11.1552C11.5022 11.2013 11.5224 11.2475 11.5411 11.2936C11.5354 11.2792 11.5282 11.2676 11.5195 11.2547C11.5497 11.2936 11.58 11.3325 11.6104 11.3714C11.6046 11.3627 11.5974 11.3555 11.5902 11.3483C11.4879 11.2373 11.4215 11.0946 11.4215 10.9404C11.4215 10.7992 11.4849 10.6305 11.5902 10.5326C11.6997 10.4316 11.8439 10.3567 11.9981 10.3639C12.1465 10.3711 12.3008 10.4201 12.406 10.5325Z" fill="white"/>
</g>
<defs>
<clipPath id="clip0_1023_447">
<rect width="15" height="15" fill="white" transform="matrix(-1 0 0 1 23.3062 7.51672)"/>
</clipPath>
</defs>
</svg>
