<svg width="25" height="25" viewBox="0 0 25 25" fill="none" xmlns="http://www.w3.org/2000/svg">
<g clip-path="url(#clip0_525_2977)">
<path d="M12.4766 0.518555C15.7109 0.518555 16.1094 0.541992 17.375 0.588867C18.6172 0.635742 19.4844 0.84668 20.2578 1.15137C21.0547 1.45605 21.7109 1.85449 22.3672 2.51074C23.0234 3.16699 23.4219 3.82324 23.7266 4.62012C24.0312 5.39355 24.2422 6.26074 24.2891 7.50293C24.3359 8.76855 24.3594 9.16699 24.3594 12.4014C24.3594 15.6357 24.3359 16.0342 24.2891 17.2998C24.2422 18.542 24.0312 19.4092 23.7266 20.1826C23.4219 20.9795 23.0234 21.6357 22.3672 22.292C21.7109 22.9482 21.0547 23.3467 20.2578 23.6514C19.4844 23.9561 18.6172 24.167 17.375 24.2139C16.1094 24.2607 15.7109 24.2842 12.4766 24.2842C9.24219 24.2842 8.84375 24.2607 7.57812 24.2139C6.33594 24.167 5.46875 23.9561 4.69531 23.6514C3.89844 23.3467 3.24219 22.9482 2.58594 22.292C1.92969 21.6357 1.53125 20.9795 1.22656 20.1826C0.921875 19.4092 0.710938 18.542 0.664062 17.2998C0.617188 16.0342 0.59375 15.6357 0.59375 12.4014C0.59375 9.16699 0.617188 8.76855 0.664062 7.50293C0.710938 6.26074 0.921875 5.39355 1.22656 4.62012C1.53125 3.82324 1.92969 3.16699 2.58594 2.51074C3.24219 1.85449 3.89844 1.45605 4.69531 1.15137C5.46875 0.84668 6.33594 0.635742 7.57812 0.588867C8.84375 0.541992 9.24219 0.518555 12.4766 0.518555ZM12.4766 2.06543C9.10156 2.06543 8.70312 2.08887 7.39062 2.13574C6.17188 2.18262 5.49219 2.41699 5.04688 2.58105C3.89844 3.0498 3.125 3.82324 2.65625 4.97168C2.49219 5.41699 2.25781 6.09668 2.21094 7.31543C2.16406 8.62793 2.14062 9.02637 2.14062 12.4014C2.14062 15.7764 2.16406 16.1748 2.21094 17.4873C2.25781 18.7061 2.49219 19.3857 2.65625 19.8311C3.125 20.9795 3.89844 21.7529 5.04688 22.2217C5.49219 22.3857 6.17188 22.6201 7.39062 22.667C8.70312 22.7139 9.10156 22.7373 12.4766 22.7373C15.8516 22.7373 16.25 22.7139 17.5625 22.667C18.7812 22.6201 19.4609 22.3857 19.9062 22.2217C21.0547 21.7529 21.8281 20.9795 22.2969 19.8311C22.4609 19.3857 22.6953 18.7061 22.7422 17.4873C22.7891 16.1748 22.8125 15.7764 22.8125 12.4014C22.8125 9.02637 22.7891 8.62793 22.7422 7.31543C22.6953 6.09668 22.4609 5.41699 22.2969 4.97168C21.8281 3.82324 21.0547 3.0498 19.9062 2.58105C19.4609 2.41699 18.7812 2.18262 17.5625 2.13574C16.25 2.08887 15.8516 2.06543 12.4766 2.06543ZM12.4766 17.1592C15.1016 17.1592 17.2344 15.0264 17.2344 12.4014C17.2344 9.77637 15.1016 7.64355 12.4766 7.64355C9.85156 7.64355 7.71875 9.77637 7.71875 12.4014C7.71875 15.0264 9.85156 17.1592 12.4766 17.1592ZM12.4766 6.30762C15.8516 6.30762 18.5703 9.02637 18.5703 12.4014C18.5703 15.7764 15.8516 18.4951 12.4766 18.4951C9.10156 18.4951 6.38281 15.7764 6.38281 12.4014C6.38281 9.02637 9.10156 6.30762 12.4766 6.30762ZM20.2578 6.07324C20.2578 6.87012 19.6016 7.47949 18.8047 7.47949C18.0078 7.47949 17.3984 6.87012 17.3984 6.07324C17.3984 5.27637 18.0078 4.62012 18.8047 4.62012C19.6016 4.62012 20.2578 5.27637 20.2578 6.07324Z" fill="#F33FA2"/>
</g>
<defs>
<clipPath id="clip0_525_2977">
<rect width="24" height="24" fill="white" transform="translate(0.5 0.424805)"/>
</clipPath>
</defs>
</svg>
