<svg width="25" height="25" viewBox="0 0 25 25" fill="none" xmlns="http://www.w3.org/2000/svg">
<g clip-path="url(#clip0_525_2979)">
<path d="M13.8242 2.31104C13.9135 2.31104 13.9645 2.31479 13.9645 2.31479H15.9227L15.9122 4.56479H13.9667C12.8965 4.56479 12.9205 5.47904 12.9205 5.47904V9.04604H16.7087L16.18 11.293H12.9077V22.5378H10.66L10.6585 11.293H7.67196L7.66596 9.04604H10.6592V5.54954C10.66 2.50079 13.192 2.31104 13.822 2.31104H13.8242ZM13.8242 0.811035C13.285 0.811035 12.2312 0.900285 11.233 1.50179C10.288 2.07029 9.16221 3.23504 9.16221 5.54879V7.54529H7.66896C7.27071 7.54529 6.88821 7.70429 6.60621 7.98629C6.32496 8.26904 6.16746 8.65079 6.16896 9.05054L6.17496 11.2975C6.17796 12.1233 6.84921 12.7923 7.67496 12.7923H9.16146L9.16296 22.537C9.16296 23.3658 9.83496 24.037 10.663 24.037H12.9107C13.7395 24.037 14.4107 23.3658 14.4107 22.537V12.7923H16.183C16.8482 12.7923 17.4347 12.3535 17.6222 11.7145L18.151 9.46754C18.2837 9.01454 18.1952 8.52404 17.9117 8.14679C17.629 7.76804 17.1835 7.54529 16.711 7.54529H14.4227V6.06554L15.9137 6.06479C16.7395 6.06479 17.41 5.39804 17.4137 4.57154L17.4242 2.39804C17.4257 2.37029 17.4265 2.34329 17.4265 2.31479C17.4265 1.48604 16.7567 0.814785 15.928 0.814785H14.0072C13.9637 0.812535 13.9022 0.811035 13.8242 0.811035Z" fill="#F33FA2"/>
</g>
<defs>
<clipPath id="clip0_525_2979">
<rect width="24" height="24" fill="white" transform="translate(0.189453 0.424805)"/>
</clipPath>
</defs>
</svg>
