<svg width="18" height="18" viewBox="0 0 18 18" fill="none" xmlns="http://www.w3.org/2000/svg">
<path d="M9 0.5C9.09934 0.50001 9.20499 0.561708 9.25684 0.682617L11.4688 5.8418L11.583 6.1084L11.8721 6.1416L17.2432 6.74902C17.3429 6.76039 17.4445 6.83525 17.4844 6.96387C17.5248 7.09455 17.4849 7.23249 17.3975 7.31543L13.3945 11.1123L13.1934 11.3018L13.248 11.5732L14.3555 17.1074C14.3827 17.2432 14.3288 17.3749 14.2363 17.4453C14.1479 17.5126 14.0352 17.517 13.9434 17.4619L9.25684 14.6494L9 14.4951L8.74219 14.6494L4.05664 17.4619C3.96478 17.517 3.85208 17.5125 3.76367 17.4453C3.67124 17.3749 3.61735 17.2433 3.64453 17.1074L4.75195 11.5732L4.80664 11.3018L4.60547 11.1123L0.602539 7.31543C0.515113 7.23249 0.475186 7.09454 0.515625 6.96387C0.555535 6.83529 0.657063 6.76041 0.756836 6.74902L6.12793 6.1416L6.41699 6.1084L6.53125 5.8418L8.74316 0.682617C8.79503 0.56167 8.90077 0.5 9 0.5Z" stroke="#666666"/>
</svg>
