<svg width="21" height="19" viewBox="0 0 21 19" fill="none" xmlns="http://www.w3.org/2000/svg">
<path d="M6.16328 7.99648C6.81543 9.12541 7.56441 10.2087 8.54173 11.1989C9.51722 12.1944 10.7338 13.0986 12.3085 13.8711C12.4254 13.9256 12.5369 13.9256 12.6337 13.8887C12.7835 13.8343 12.9369 13.7149 13.0867 13.5709C13.2036 13.4585 13.348 13.2794 13.4996 13.0846C14.1042 12.3191 14.855 11.3692 15.9127 11.8433C15.9365 11.8538 15.9548 11.8661 15.9767 11.8766L19.5078 13.8272C19.5188 13.8325 19.5316 13.8448 19.5425 13.8501C20.0083 14.1573 20.2002 14.6331 20.2056 15.1704C20.2056 15.7181 19.9956 16.3344 19.6887 16.8523C19.2831 17.5388 18.6821 17.9936 17.9916 18.2938C17.334 18.5852 16.6014 18.7415 15.8981 18.8416C14.7929 18.9978 13.759 18.8978 12.7013 18.5852C11.6655 18.278 10.6242 17.7688 9.48617 17.0929L9.40213 17.042C8.87968 16.7294 8.31521 16.3923 7.7617 15.9973C5.73399 14.526 3.66974 12.4033 2.32524 10.0665C1.1963 8.10358 0.580676 5.98617 0.916801 3.96709C1.10313 2.86099 1.59636 1.85496 2.45859 1.18954C3.20939 0.608397 4.2196 0.288855 5.52939 0.401221C5.67918 0.411756 5.81436 0.496031 5.88378 0.618931L8.14715 4.29541C8.47779 4.70801 8.51981 5.11709 8.33896 5.52618C8.18916 5.86152 7.88592 6.17052 7.47307 6.45846C7.35068 6.55854 7.20636 6.66037 7.05474 6.76571C6.54872 7.11861 5.97329 7.52594 6.17058 8.00701L6.16328 7.99648Z" fill="#F33FA2"/>
</svg>
