<svg width="23" height="31" viewBox="0 0 23 31" fill="none" xmlns="http://www.w3.org/2000/svg">
<path d="M11.6303 0.714844C5.48125 0.714844 0.273438 5.95266 0.273438 12.1561C0.273438 18.653 6.31 25.297 10.3703 29.9667C10.3863 29.9855 11.0425 30.7139 11.8506 30.7139H11.9219C12.7309 30.7139 13.3825 29.9855 13.3984 29.9667C17.2084 25.5867 22.7734 18.3633 22.7734 12.1561C22.7734 5.95172 18.7113 0.714844 11.6303 0.714844ZM12.0062 28.7086C11.9734 28.7414 11.9256 28.778 11.8834 28.8089C11.8403 28.7789 11.7934 28.7414 11.7587 28.7086L11.2684 28.1442C7.41906 23.7286 2.1475 17.6808 2.1475 12.1552C2.1475 6.96891 6.49 2.58797 11.6294 2.58797C18.0316 2.58797 20.8975 7.39266 20.8975 12.1552C20.8975 16.3495 17.9059 21.9202 12.0062 28.7086ZM11.5562 6.39141C8.45031 6.39141 5.93125 8.90953 5.93125 12.0164C5.93125 15.1233 8.45031 17.6414 11.5562 17.6414C14.6622 17.6414 17.1812 15.1223 17.1812 12.0164C17.1812 8.91047 14.6631 6.39141 11.5562 6.39141ZM11.5562 15.7664C9.48812 15.7664 7.76313 14.0433 7.76313 11.9752C7.76313 9.90703 9.445 8.22516 11.5131 8.22516C13.5822 8.22516 15.2631 9.90703 15.2631 11.9752C15.2641 14.0433 13.6253 15.7664 11.5562 15.7664Z" fill="#F33FA2"/>
</svg>
