<svg width="21" height="22" viewBox="0 0 21 22" fill="none" xmlns="http://www.w3.org/2000/svg">
<path d="M10.4998 7.85047C13.3745 7.85047 15.7051 10.1815 15.7051 13.0558C15.7051 15.9304 13.3741 18.2619 10.4998 18.2619C7.62522 18.2619 5.29455 15.9309 5.29455 13.0558C5.29455 10.1811 7.62555 7.85047 10.4998 7.85047ZM10.4998 2.76904C14.2802 2.76904 17.6985 4.66232 20.1594 7.71307L19.0813 8.57969C16.8893 5.86191 13.8633 4.15533 10.4996 4.15533C7.13525 4.15533 4.10981 5.86195 1.91794 8.57969L0.839844 7.71307C3.30095 4.66171 6.71902 2.76904 10.4994 2.76904H10.4998ZM10.4998 9.2368C8.39025 9.2368 6.68043 10.9467 6.68043 13.0562C6.68043 15.1658 8.39029 16.8756 10.4998 16.8756C12.6094 16.8756 14.3193 15.1658 14.3193 13.0562C14.3193 10.9467 12.6094 9.2368 10.4998 9.2368Z" fill="#F33FA2"/>
</svg>
