<svg width="46" height="46" viewBox="0 0 46 46" fill="none" xmlns="http://www.w3.org/2000/svg">
<rect x="0.40625" y="0.141968" width="45" height="45" rx="22.5" fill="#FFEAF6"/>
<rect x="13.9062" y="13.642" width="18" height="18" rx="3" fill="#F33FA2"/>
<path fill-rule="evenodd" clip-rule="evenodd" d="M22.026 25.151C21.6806 26.9319 21.2341 28.216 19.9865 29.1083C19.6008 26.4176 20.5525 24.3971 20.9937 22.2503C20.2405 21.0034 21.0842 18.493 22.6711 19.1107C24.6239 19.8722 21.1207 23.5656 23.5673 24.0502C26.1218 24.5553 27.0362 20.1963 25.4531 18.6124C23.1648 16.3256 18.6057 18.2648 19.3155 21.507C19.6015 22.814 18.6285 23.186 18.6285 23.186C17.8404 22.8665 17.7651 21.7604 17.8054 20.6809C17.896 18.1986 20.0701 16.4603 22.2512 16.2191C25.0096 15.9148 27.5984 17.2165 27.9552 19.7726C28.3584 22.6565 26.7631 25.9695 23.813 25.7443C23.0142 25.6835 22.026 25.151 22.026 25.151Z" fill="white"/>
</svg>
