<svg width="25" height="25" viewBox="0 0 25 25" fill="none" xmlns="http://www.w3.org/2000/svg">
<g clip-path="url(#clip0_525_2983)">
<path d="M24.0664 6.61073C23.9308 6.1 23.6634 5.63386 23.291 5.25899C22.9186 4.88412 22.4542 4.61367 21.9444 4.47473C20.0734 3.96973 12.5684 3.96973 12.5684 3.96973C12.5684 3.96973 5.06336 3.96973 3.19136 4.47473C2.68177 4.61391 2.21765 4.88446 1.84544 5.25931C1.47322 5.63416 1.20595 6.10017 1.07036 6.61073C0.568359 8.49473 0.568359 12.4247 0.568359 12.4247C0.568359 12.4247 0.568359 16.3547 1.07036 18.2387C1.20595 18.7495 1.47333 19.2156 1.84575 19.5905C2.21817 19.9653 2.68254 20.2358 3.19236 20.3747C5.06336 20.8797 12.5684 20.8797 12.5684 20.8797C12.5684 20.8797 20.0734 20.8797 21.9454 20.3747C22.4552 20.2359 22.9196 19.9655 23.2921 19.5906C23.6645 19.2157 23.9319 18.7495 24.0674 18.2387C24.5684 16.3547 24.5684 12.4247 24.5684 12.4247C24.5684 12.4247 24.5684 8.49473 24.0664 6.61073ZM10.1134 15.9927V8.85673L16.3864 12.4247L10.1134 15.9927Z" fill="#F33FA2"/>
</g>
<defs>
<clipPath id="clip0_525_2983">
<rect width="24" height="24" fill="white" transform="translate(0.568359 0.424805)"/>
</clipPath>
</defs>
</svg>
