<svg width="46" height="46" viewBox="0 0 46 46" fill="none" xmlns="http://www.w3.org/2000/svg">
<rect x="0.0625" y="0.141968" width="45" height="45" rx="22.5" fill="#FFEAF6"/>
<path d="M32.6232 17.5547C32.5046 17.1078 32.2706 16.7 31.9448 16.3719C31.6189 16.0439 31.2126 15.8073 30.7665 15.6857C29.1294 15.2438 22.5625 15.2438 22.5625 15.2438C22.5625 15.2438 15.9956 15.2438 14.3576 15.6857C13.9117 15.8075 13.5056 16.0442 13.1799 16.3722C12.8543 16.7002 12.6204 17.108 12.5017 17.5547C12.0625 19.2032 12.0625 22.642 12.0625 22.642C12.0625 22.642 12.0625 26.0807 12.5017 27.7292C12.6204 28.1761 12.8544 28.584 13.1802 28.912C13.5061 29.24 13.9124 29.4766 14.3585 29.5982C15.9956 30.0401 22.5625 30.0401 22.5625 30.0401C22.5625 30.0401 29.1294 30.0401 30.7674 29.5982C31.2135 29.4767 31.6199 29.2401 31.9458 28.9121C32.2716 28.584 32.5056 28.1761 32.6241 27.7292C33.0625 26.0807 33.0625 22.642 33.0625 22.642C33.0625 22.642 33.0625 19.2032 32.6232 17.5547ZM20.4144 25.764V19.52L25.9032 22.642L20.4144 25.764Z" fill="#F33FA2"/>
</svg>
